<?xml version="1.0" encoding="UTF-8" standalone="no"?>
<svg
   xmlns:dc="http://purl.org/dc/elements/1.1/"
   xmlns:cc="http://creativecommons.org/ns#"
   xmlns:rdf="http://www.w3.org/1999/02/22-rdf-syntax-ns#"
   xmlns:svg="http://www.w3.org/2000/svg"
   xmlns="http://www.w3.org/2000/svg"
   xmlns:sodipodi="http://sodipodi.sourceforge.net/DTD/sodipodi-0.dtd"
   xmlns:inkscape="http://www.inkscape.org/namespaces/inkscape"
   version="1.1"
   id="svg2"
   xml:space="preserve"
   width="486.66666"
   height="211.21333"
   viewBox="0 0 486.66666 211.21333"
   sodipodi:docname="band-news-tv-seeklogo.com.eps"><metadata
     id="metadata8"><rdf:RDF><cc:Work
         rdf:about=""><dc:format>image/svg+xml</dc:format><dc:type
           rdf:resource="http://purl.org/dc/dcmitype/StillImage" /></cc:Work></rdf:RDF></metadata><defs
     id="defs6" /><sodipodi:namedview
     pagecolor="#ffffff"
     bordercolor="#666666"
     borderopacity="1"
     objecttolerance="10"
     gridtolerance="10"
     guidetolerance="10"
     inkscape:pageopacity="0"
     inkscape:pageshadow="2"
     inkscape:window-width="640"
     inkscape:window-height="480"
     id="namedview4" /><g
     id="g10"
     inkscape:groupmode="layer"
     inkscape:label="ink_ext_XXXXXX"
     transform="matrix(1.3333333,0,0,-1.3333333,0,211.21333)"><g
       id="g12"
       transform="scale(0.1)"><path
         d="m 1461.14,1577.32 c -1049.351,0.04 -970.027,-1.16 -1023.148,-21.79 -85.035,-33.01 -162.34,-108.6 -195.187,-190.65 -8.176,-20.42 -39.309,-166.63 -119.383,-556.966 -1.363,-6.644 -1.848,-8.941 -3.18,-15.434 H 3535.14 c 12.31,60.067 19.29,94.844 31.32,153.426 78.62,383.104 82.69,409.134 73.08,458.924 -15.66,81.08 -84.59,149.44 -168.41,167.04 -17.27,3.63 -130.7,5.01 -722.2,5.45 H 1461.14 v 0"
         style="fill:#ffffff;fill-opacity:1;fill-rule:nonzero;stroke:none"
         id="path14" /><path
         d="m 1461.14,1577.32 v 6.74 c -16.59,0 -32.9,0 -48.93,0 -498.991,0 -729.437,-0.37 -841.909,-3.28 -56.262,-1.47 -83.004,-3.53 -99.621,-6.65 -8.293,-1.57 -14.117,-3.48 -19.289,-5.59 -5.188,-2.12 -9.586,-4.3 -15.84,-6.73 -43.488,-16.89 -84.766,-44.53 -119.434,-78.4 -34.656,-33.87 -62.726,-73.97 -79.57,-116.02 -1.238,-3.12 -2.617,-7.71 -4.449,-14.56 -6.344,-23.81 -17.614,-74.2 -36.098,-161.48 -18.48,-87.25 -44.145,-211.307 -79.184,-382.084 -1.359,-6.633 -1.839,-8.926 -3.175,-15.434 l -1.661,-8.094 h 3428.65 l 1.11,5.387 c 12.31,60.082 19.3,94.855 31.32,153.426 30.2,147.159 49.4,241.639 61.08,305.129 11.66,63.49 15.85,96.02 15.86,119.61 0.01,14.22 -1.58,25.11 -3.84,36.82 -8.12,42.01 -29.97,80.53 -60.52,110.83 -30.55,30.3 -69.86,52.44 -113.12,61.53 -2.81,0.58 -6.61,0.98 -12.68,1.39 -21.08,1.37 -69.25,2.31 -177.06,2.97 -107.78,0.67 -275.06,1.04 -533.84,1.23 h -1287.8 v -6.74 l 6.57,1.52 v 0 l -1.21,5.22 h -5.36 v -6.74 l -6.56,-1.52 v 0 l 1.2,-5.22 h 1293.15 c 295.74,-0.22 471.97,-0.67 576.38,-1.53 52.21,-0.42 86.46,-0.95 108.68,-1.6 11.1,-0.32 19.2,-0.67 24.97,-1.05 5.76,-0.36 9.28,-0.8 10.79,-1.12 40.55,-8.51 77.62,-29.35 106.4,-57.91 28.79,-28.55 49.23,-64.75 56.77,-103.82 2.19,-11.38 3.59,-21.02 3.6,-34.26 0.02,-21.91 -4,-53.93 -15.64,-117.18 -11.63,-63.25 -30.83,-157.71 -61.02,-304.848 -12.03,-58.598 -19.02,-93.375 -31.33,-153.43 l 6.61,-1.352 v 6.739 H 120.242 v -6.739 l 6.602,-1.355 c 1.328,6.48 1.812,8.781 3.179,15.434 40.036,195.161 67.836,329.291 86.641,417.141 9.402,43.93 16.559,76.29 21.859,98.89 2.649,11.3 4.836,20.16 6.598,26.77 1.75,6.59 3.129,11.02 3.938,13.02 16.004,40 43.015,78.71 76.48,111.39 33.453,32.7 73.348,59.36 114.891,75.48 6.816,2.65 11.48,4.95 16.043,6.8 4.007,1.63 8.031,3 14.023,4.29 10.469,2.24 26.953,4.09 57.613,5.5 92.059,4.25 311.098,4.75 884.101,4.74 16.03,0 32.34,0 48.93,0 v 6.74 l -6.56,-1.52 6.56,1.52"
         style="fill:#2b2d6e;fill-opacity:1;fill-rule:nonzero;stroke:none"
         id="path16" /><path
         d="M 114.883,791.582 C 0.488281,233.949 -0.734375,224.23 12.293,172.422 33.2227,89.1992 94.5391,31.5117 182.52,12.1914 201.066,8.10938 472.285,6.94141 1665.5,6.73828 h 831.6 c 613.35,0.30078 637.65,1.94141 663.64,7.26172 79.94,16.5 164.7,73.4492 212.44,142.539 15.74,22.762 36.24,64.109 43.13,88.063 3.29,11.437 20.31,92.378 38.13,179.75 12.57,61.679 45.87,223.41 75.35,367.23 H 114.883 v 0"
         style="fill:#2b2d6e;fill-opacity:1;fill-rule:nonzero;stroke:none"
         id="path18" /><path
         d="m 114.883,791.582 -6.602,1.356 C 65.1758,582.809 38.1406,450.488 21.8594,364.301 5.59375,278.078 0.0234375,238.07 0,211.879 -0.0234375,194.762 2.52734,183.57 5.75781,170.781 16.5039,128.02 37.7383,91.5703 67.6445,63.4414 97.5391,35.2891 136.035,15.4883 181.074,5.60156 182.98,5.19922 185.188,4.98828 188.645,4.73047 201.395,3.83984 229.883,3.12891 283.281,2.53906 443.371,0.761719 826.508,0.140625 1665.5,0 h 831.6 c 306.69,0.148438 466.1,0.640625 552.17,1.75 43.04,0.55859 67.74,1.26953 83.46,2.19141 15.66,0.89843 22.68,2.08984 29.36,3.45703 h 0.02 c 41,8.47266 82.89,27.19136 120.68,52.55076 37.79,25.3828 71.49,57.4028 95.94,92.7498 8.15,11.821 17.3,28.031 25.38,44.449 8.07,16.442 15.02,32.942 18.67,45.59 0.48,1.672 1.11,4.211 1.94,7.75 5.75,24.563 20.72,96.024 36.32,172.524 12.57,61.66 45.88,223.394 75.35,367.218 l 1.66,8.09 H 114.883 v -6.738 l 6.48,-1.852 v 0 l -6.48,1.852 -6.602,1.356 6.602,-1.356 -6.481,1.852 v 0 l -2.453,-8.59 H 3529.79 v 6.738 l -6.6,1.352 c -29.48,-143.817 -62.78,-305.536 -75.36,-367.235 -8.9,-43.668 -17.61,-85.738 -24.5,-118.301 -3.44,-16.277 -6.43,-30.187 -8.76,-40.718 -1.17,-5.258 -2.17,-9.68 -2.97,-13.121 -0.8,-3.418 -1.43,-5.918 -1.77,-7.098 -3.24,-11.301 -9.98,-27.441 -17.82,-43.359 -7.82,-15.93 -16.79,-31.782 -24.37,-42.731 -23.3,-33.73 -55.85,-64.7304 -92.36,-89.2304 -36.5,-24.5117 -76.97,-42.5117 -115.9,-50.539 l 0.01,0.0078 c -6.32,-1.2891 -12.08,-2.3086 -27.45,-3.2188 -22.98,-1.3398 -66.77,-2.2695 -162.22,-2.8789 -95.46,-0.6211 -242.62,-0.9219 -472.62,-1.0312 H 1665.5 C 1068.9,13.582 702.789,13.9219 483.535,14.75 c -109.629,0.4102 -182.543,0.9492 -229.176,1.6289 -23.308,0.3516 -40.054,0.7305 -51.488,1.1524 -5.715,0.207 -10.105,0.4296 -13.277,0.6484 -3.137,0.2109 -5.223,0.4805 -5.629,0.5898 C 141.023,28.2109 104.867,46.9102 76.8828,73.25 48.9023,99.6016 29.0156,133.609 18.832,174.07 c -3.1914,12.739 -5.332,21.969 -5.3554,37.809 -0.0235,24.211 5.375,63.941 21.6289,149.922 16.2422,86 43.2773,218.32 86.3785,428.429 l -13.082,3.204 6.481,-1.852"
         style="fill:#2b2d6e;fill-opacity:1;fill-rule:nonzero;stroke:none"
         id="path20" /><path
         d="m 2744.62,1456.03 v 0 l -2.04,-8.74 c -1.12,-4.83 -15.79,-73.48 -32.55,-152.47 -16.77,-78.99 -44.34,-208.67 -61.28,-288.19 -16.93,-79.517 -30.75,-146.294 -30.75,-148.4 0,-2.503 90.7,-3.828 263.65,-3.828 219.29,0 269.4,1.004 297.28,5.868 39.36,6.863 92.03,25.843 122.91,44.281 25.74,15.367 71.8,59.14 89.04,84.609 46.05,68.02 77.54,175.47 77.91,265.93 0.35,86.26 -28.91,139.97 -93.71,171.86 -53.99,26.57 -50.24,26.26 -355.8,27.76 l -274.66,1.32 m 213.91,-448.32 c -64.22,0 -69,0.66 -67.19,6.58 1.13,3.69 8.03,35.14 15.32,69.9 7.29,34.75 20.73,98.26 29.8,141.1 l 16.52,77.91 v 0 l 89.99,-1.56 c 82.16,-1.37 91.97,-2.23 111.78,-10.05 25.4,-10.02 46.69,-31.37 52.66,-52.9 14.87,-53.52 -9.74,-142.11 -50.98,-183.23 -39.11,-38.98 -73.13,-47.65 -187.42,-47.75 -3.65,0 -7.15,0 -10.48,0 m -2456.448,448.2 v 0 l -14.242,-66.18 c -7.817,-36.4 -22.93,-107.55 -33.629,-158.1 -32.488,-153.44 -76.445,-359.442 -78.633,-368.728 l -2.031,-8.738 297.879,1.078 c 276.199,1.012 299.676,1.68 323.371,8.258 14.053,3.898 38.613,13.398 54.573,21.184 15,7.312 27.49,12.875 28.94,12.875 0.09,0 0.14,-0.024 0.14,-0.071 0,-0.773 -4.93,-8.668 -10.89,-17.472 -5.96,-8.805 -12.11,-18.192 -13.64,-20.825 -2.21,-3.789 23.92,-4.789 125.54,-4.789 h 128.42 l 20.1,34.469 20.11,34.469 h 121.47 121.48 l 1.91,-10.531 c 1.11,-5.793 3.11,-18.289 4.43,-27.766 1.32,-9.48 3.26,-20.25 4.31,-23.938 1.77,-6.285 15.87,-6.703 226.79,-6.703 h 224.87 l 4.55,22.024 c 26.49,129.074 63.94,302.234 65.82,304.464 0.02,0.01 0.04,0.02 0.06,0.02 2.1,0 42.53,-71.8 90.54,-160.87 l 88.2,-163.72 132.85,-0.957 c 23.16,-0.175 45,-0.261 64.01,-0.261 40.95,0 68.83,0.39 68.83,1.097 0,1.93 21.09,101.676 88.2,416.721 20.99,98.52 38.18,180.04 38.18,181.07 0,0.71 -24.27,1.1 -59.89,1.1 -16.55,0 -35.55,-0.08 -55.72,-0.26 l -115.49,-1.08 -27.64,-130.2 c -15.2,-71.62 -30.98,-145.73 -35.07,-164.68 l -7.54,-34.47 -33.03,65.1 c -18.22,35.81 -56.07,110.38 -84.02,165.64 l -50.74,100.53 h -138.11 -138.11 l -4.78,-23.94 c -2.68,-13.16 -21.23,-100.62 -41.17,-194.35 -19.95,-93.74 -41.46,-195.42 -47.87,-225.96 -6.41,-30.537 -12.54,-58.111 -13.65,-61.272 -0.04,-0.136 -0.1,-0.203 -0.18,-0.203 -2.76,0 -24.53,97.765 -83.47,375.515 -11.85,55.82 -23.22,107.95 -25.25,115.85 l -3.72,14.36 H 1582.3 1435.33 l -77.55,-121.6 c -42.68,-66.87 -101.72,-159.5 -131.17,-205.84 -29.44,-46.34 -54.69,-85.5 -56.12,-87.13 -0.08,-0.09 -0.16,-0.14 -0.24,-0.14 -1.24,0 -1.6,12.63 -0.72,29.34 2.26,43.17 -5.39,66.43 -30.04,91.08 -10.04,10.04 -22.79,19.33 -28.24,20.7 -9.09,2.28 -14.14,9.34 -6.71,9.34 9.2,0 42.05,27.22 56.37,46.67 22.83,31.01 33.91,65.64 34.11,106.64 0.13,27.67 -1.28,35.57 -9.57,51.7 -11.58,22.5 -34.6,41.13 -62.24,50.5 -18.26,6.2 -45.07,6.89 -320.495,7.9 l -300.633,1.08 m 289.023,-222.36 c -59.39,0 -99.453,1.44 -99.453,3.59 0,3.83 10.434,51.29 13.762,62.47 1.832,6.16 10.125,6.7 103.402,6.7 116.758,0 124.106,-1.42 124.106,-25.13 0,-20.31 -9.098,-34.32 -26.809,-41.41 -12.945,-5.18 -32.129,-6.22 -115.008,-6.22 m 750.385,31.71 c 0.01,0.02 0.03,0.03 0.05,0.03 2.5,0 27.35,-171.89 27.11,-187.81 -0.05,-3.64 -15.99,-4.78 -67.01,-4.78 -36.87,0 -67.02,0.55 -67.02,1.2 0,2.04 104.02,188.31 106.87,191.36 v 0 M 735.781,1003.88 c -88.16,0 -94.222,0.69 -92.597,6.58 1.011,3.69 4.652,20.5 8.136,37.34 3.485,16.86 7.207,33.66 8.258,37.34 1.762,6.2 10.633,6.71 116.805,6.71 v 0 h 115.012 l 11.128,-11.13 c 13.059,-13.06 13.84,-22.9 3.59,-45.48 -5.683,-12.53 -11.289,-18.13 -23.812,-23.81 -15.039,-6.83 -25.856,-7.47 -128.778,-7.55 -6.253,0 -12.164,0 -17.742,0"
         style="fill:#2b2e72;fill-opacity:1;fill-rule:nonzero;stroke:none"
         id="path22" /><path
         d="m 2883.62,742.883 c -6.4,-0.406 -12.34,-0.875 -17.24,-1.438 -87.17,-9.968 -150.91,-30.527 -197.35,-63.668 l -25.49,-18.07 15.92,29.32 c 8.75,16.125 15.92,31.036 15.92,33.149 0,2.484 -39.85,3.832 -112.62,3.832 h -112.62 l -40.21,-94.785 c -22.15,-52.133 -55.46,-130.743 -74.08,-174.614 -23.21,-54.668 -30.52,-71.839 -33.6,-71.839 -1.4,0 -1.92,3.511 -2.67,8.652 -1.31,9.109 -3.6,80.398 -5.02,158.328 -1.42,77.938 -3.47,149.027 -4.67,157.98 l -2.27,16.278 h -92.75 -92.88 l -80.06,-176.528 -79.94,-176.531 -1.08,176.531 -0.96,176.528 h -403.91 -403.92 l -2.03,-8.617 c -1.13,-4.743 -27.02,-126.668 -57.57,-270.95 -30.55,-144.293 -58,-273.109 -60.92,-286.269 l -5.26,-23.942 h 313.44 c 295.18,0 313.51,0.391 315.35,6.7 2.29,7.851 29.2,133.922 29.2,136.789 0,1.082 -87.89,2.043 -195.31,2.043 -117.02,0 -195.32,1.347 -195.32,3.468 0,1.95 3.5,19.2 7.9,38.301 l 8.02,34.699 182.27,0.961 182.27,1.079 14.48,68.929 c 7.97,37.922 14.51,70.231 14.6,71.813 0.09,1.578 -81.72,2.867 -181.91,2.867 -171.68,0 -182.07,0.391 -180.24,6.703 1.08,3.688 4.86,20.918 8.5,38.297 l 6.7,31.601 h 194.6 c 188.47,0 194.72,-0.281 194.72,-7.3 0,-6.59 9.65,-132.141 24.89,-323.969 3.18,-40.02 6.7,-81.91 7.9,-92.992 l 2.15,-20.11 115.25,0.961 115.25,1.071 73.61,159.898 73.48,159.891 2.39,-58.41 c 1.31,-32.141 3.29,-93.731 4.43,-136.911 1.14,-43.179 3.03,-89.371 4.19,-102.558 l 2.15,-23.942 114.77,0.961 114.78,1.071 100.29,198.07 100.41,197.949 2.39,-27.531 c 4.95,-57.539 31.25,-91.149 86.53,-110.578 11.69,-4.11 86.59,-17.68 166.47,-30.039 93.18,-14.41 148.54,-24.571 154.51,-28.481 21.5,-14.101 12.57,-46.883 -17.24,-63.191 -14.46,-7.918 -23.66,-9.641 -59.48,-11.008 -6.87,-0.273 -13.36,-0.402 -19.47,-0.402 -57.15,0 -81.81,11.679 -83.93,38.699 l -0.96,12.68 -140.26,0.961 -140.14,1.082 -2.52,-9.942 c -1.36,-5.41 -1.62,-23.879 -0.72,-41.172 1.34,-25.429 3.74,-35.367 12.69,-51.816 24.22,-44.5 74.74,-71.91 158.93,-86.293 40.84,-6.969 51.17,-8.719 105.31,-8.719 18.3,0 41.6,0.199 72.78,0.469 89.66,0.762 122.88,2.43 151.27,7.652 94.53,17.41 151.66,42.578 195.67,86.168 34.46,34.129 53.84,69.91 63.43,116.93 14.94,73.191 -15.72,126.23 -88.44,153.191 -29.66,10.989 -58.32,16.328 -228.11,42 -128.69,19.461 -133.37,21.012 -128.41,43.571 3.25,14.789 20.39,29.601 41.41,35.66 8.85,2.554 34.25,4.726 56.37,4.789 0.36,0 0.73,0 1.09,0 63.36,0 94.65,-15.344 94.65,-46.199 V 549.84 h 135.83 135.84 l 2.51,9.93 c 1.38,5.492 1.54,21.41 0.24,35.304 -6.99,74.813 -64.19,118.383 -184.43,140.625 -16.91,3.129 -48.98,5.633 -85.45,7.18 h -156.3 l 0.01,0.004 M 622.172,726.008 H 488.371 v 0 c -73.598,0 -133.801,-1.055 -133.801,-2.274 0,-1.222 -13.929,-67.14 -30.879,-146.484 -35.886,-168.012 -52,-244.16 -70.609,-332.828 -7.402,-35.281 -15.262,-71.352 -17.352,-80.184 -5.648,-23.879 -12.699,-27.726 43.649,-27.726 15.926,0 36.902,0.308 64.422,0.558 l 111.898,1.078 33.512,157.012 c 18.422,86.371 34.043,159.61 34.703,162.77 0.016,0.07 0.047,0.101 0.098,0.101 2.289,0 41.726,-69.961 89.062,-158.082 L 701.039,136.23 h 128.652 128.657 l 8.496,41.168 c 11.289,54.372 30.504,144.954 76.956,362.512 21.09,98.789 38.41,181.078 38.41,182.867 0,1.786 -50.62,3.231 -112.491,3.231 h -112.5 l -2.395,-12.445 C 843.813,655.531 789.09,404.43 787.449,404.43 c 0,0 0,0 -0.004,0 -1.136,0.058 -13.914,23.761 -28.363,52.66 -14.445,28.898 -51.184,101.219 -81.621,160.73 l -55.289,108.188"
         style="fill:#fdfdfe;fill-opacity:1;fill-rule:nonzero;stroke:none"
         id="path24" /></g></g></svg>
