<svg width="86" height="87" viewBox="0 0 86 87" fill="none" xmlns="http://www.w3.org/2000/svg">
<path d="M67.6645 34.8655C66.5693 31.8844 63.7582 29.9065 60.6138 29.9065C57.3284 29.9065 54.4232 32.0638 53.4382 35.2339L48.5456 50.9809C49.3438 52.9289 50.3032 54.3752 51.7263 54.3752C56.0934 54.3752 56.0934 40.7815 60.4593 40.7815C64.8292 40.7815 64.8292 54.3752 69.199 54.3752C70.9997 54.3752 72.0572 52.0684 72.9857 49.3551L67.6645 34.8655Z" fill="#075E6F"/>
<path d="M25.5312 21.7502C25.5312 17.7496 28.3813 14.4286 32.1371 13.734L32.1412 13.7286C31.5714 10.5599 28.8288 8.15649 25.5312 8.15649C24.9319 8.15649 24.3635 8.26117 23.8099 8.40934C22.7766 5.11013 19.7276 2.71899 16.125 2.71899C11.6718 2.71899 8.0625 6.37028 8.0625 10.8752C8.0625 11.3388 8.10012 11.7942 8.17403 12.236L8.18478 12.2469C8.14312 12.2455 8.10416 12.2346 8.0625 12.2346C5.09416 12.2346 2.6875 14.6693 2.6875 17.6721C2.6875 20.675 5.09416 23.1096 8.0625 23.1096H25.6441L25.6508 23.1001C25.5783 22.6597 25.5312 22.2111 25.5312 21.7502Z" fill="url(#paint0_linear)"/>
<path d="M68.9236 34.3924C67.7814 31.2808 65.0079 29.0882 61.8125 28.6409V19.9885L83.1459 12.2808L62.0624 4.07837H59.125V28.6763C55.8772 29.2282 53.1722 31.5595 52.1563 34.8261L45.3946 56.591C44.9713 55.161 44.1005 53.8872 42.8737 53.0009L36.4412 48.3532L38.7027 38.0627H42.5673C46.6604 38.0627 50.3436 35.764 52.1778 32.0611L57.2894 21.7475C57.6119 21.0991 57.7812 20.3718 57.7812 19.6459C57.7812 17.0577 55.7011 14.9534 53.0983 14.9534C51.3312 14.9534 49.7403 15.9471 48.9501 17.5471L44.6273 26.2933C43.9406 27.6839 42.5592 28.5471 41.022 28.5471H40.1647C41.9116 26.818 43 24.4119 43 21.7502C43 16.5031 38.7806 12.2346 33.5938 12.2346C28.4069 12.2346 24.1875 16.5031 24.1875 21.7502C24.1875 24.4119 25.2759 26.818 27.0228 28.5471H26.3214C21.2259 28.5471 16.4032 31.274 13.7331 35.6634L7.38391 46.1007C6.94853 46.8144 6.71875 47.6368 6.71875 48.4783C6.71875 49.1253 6.8585 49.7398 7.10172 50.2971H1.34375V69.3284H18.3637L16.2876 78.0025C16.1801 78.4552 16.125 78.9188 16.125 79.381V79.7779C16.125 83.0105 18.7252 85.6409 21.9193 85.6409C24.643 85.6409 27.0282 83.6834 27.5899 80.9864L31.9772 59.9038L34.9375 61.8994V74.7659C34.9375 77.7646 37.3482 80.2034 40.3125 80.2034H84.6562V77.2399L68.9236 34.3924ZM61.8125 6.89363L75.4166 12.187L61.8125 17.1025V6.89363ZM26.875 21.7502C26.875 18.0024 29.889 14.9534 33.5938 14.9534C37.2985 14.9534 40.3125 18.0024 40.3125 21.7502C40.3125 25.498 37.2985 28.5471 33.5938 28.5471C29.889 28.5471 26.875 25.498 26.875 21.7502ZM21.5618 50.2971H15.8858L22.5347 39.7266C22.8612 39.2073 23.3047 38.7914 23.818 38.5059L21.5618 50.2971ZM22.0133 53.0159L21.9596 53.126C20.335 56.4116 17.0697 58.4534 13.4375 58.4534C9.80534 58.4534 6.54003 56.4116 4.91678 53.126L4.86169 53.0159H11.2042H11.7121H22.0133ZM4.03125 56.6617C6.31831 59.4824 9.718 61.1721 13.4375 61.1721C17.157 61.1721 20.5567 59.4824 22.8438 56.6617V66.6096H4.03125V56.6617ZM37.625 74.7659V61.8994C37.625 60.9886 37.1775 60.1431 36.4277 59.6374L32.6572 57.094H29.8165L24.9615 80.4263C24.6592 81.8727 23.3799 82.9221 21.9193 82.9221C20.2073 82.9221 18.8125 81.5111 18.8125 79.7792V79.3823C18.8125 79.1335 18.8421 78.8848 18.8998 78.6428L21.1291 69.3284H25.5312V50.2971H24.299L27.1599 35.344H25.5312C23.3866 35.344 21.418 36.4369 20.2678 38.2667L13.2306 49.4543C12.8973 49.9831 12.3302 50.2971 11.7121 50.2971H11.2042C10.2138 50.2971 9.40625 49.4801 9.40625 48.4783C9.40625 48.1411 9.49763 47.8122 9.67231 47.5254L16.0215 37.0881C18.2065 33.4966 22.1531 31.2659 26.3214 31.2659H41.022C43.5832 31.2659 45.8864 29.8263 47.0312 27.5086L51.3541 18.7623C51.686 18.0908 52.3552 17.6721 53.1426 17.6721C54.2176 17.6721 55.0938 18.5571 55.0938 19.6459C55.0938 19.9518 55.0225 20.2577 54.8868 20.5295L49.7752 30.8431C48.4005 33.6189 45.6378 35.344 42.5687 35.344H36.5473L33.4325 49.5209L41.3122 55.214C42.3684 55.9779 43 57.2191 43 58.5336V74.7659C43 76.2653 41.7947 77.4846 40.3125 77.4846C38.8303 77.4846 37.625 76.2653 37.625 74.7659ZM44.9404 77.4846C45.4026 76.6812 45.6875 75.7609 45.6875 74.7659V64.7174L54.7202 35.6403C55.5345 33.0235 57.9022 31.2659 60.6139 31.2659C63.1831 31.2659 65.5105 32.9026 66.4054 35.3399L81.8787 77.4846H44.9404Z" fill="#197081"/>
<path d="M75.25 72.0471H77.9375V74.7659H75.25V72.0471Z" fill="#197081"/>
<path d="M69.875 72.0471H72.5625V74.7659H69.875V72.0471Z" fill="#197081"/>
<path d="M64.5 72.0471H67.1875V74.7659H64.5V72.0471Z" fill="#197081"/>
<defs>
<linearGradient id="paint0_linear" x1="8.44172" y1="5.87141" x2="17.5778" y2="23.0225" gradientUnits="userSpaceOnUse">
<stop stop-color="white"/>
<stop offset="1" stop-color="white" stop-opacity="0"/>
</linearGradient>
</defs>
</svg>
