<svg width="163" height="163" viewBox="0 0 163 163" fill="none" xmlns="http://www.w3.org/2000/svg">
<path d="M128.248 65.3223C126.172 59.737 120.844 56.0312 114.884 56.0312C108.657 56.0312 103.151 60.0731 101.284 66.0125L92.0109 95.5154C93.5237 99.1651 95.3422 101.875 98.0393 101.875C106.317 101.875 106.317 76.4062 114.591 76.4062C122.874 76.4062 122.874 101.875 131.156 101.875C134.569 101.875 136.574 97.553 138.333 92.4694L128.248 65.3223Z" fill="#C2FF01"/>
<path d="M48.3906 40.75C48.3906 33.2545 53.7925 27.0325 60.9111 25.7311L60.9187 25.7209C59.8388 19.7841 54.6407 15.2812 48.3906 15.2812C47.2547 15.2812 46.1774 15.4774 45.1281 15.755C43.1695 9.5737 37.3907 5.09375 30.5625 5.09375C22.1222 5.09375 15.2812 11.9347 15.2812 20.375C15.2812 21.2435 15.3526 22.0967 15.4926 22.9244L15.513 22.9448C15.4341 22.9422 15.3602 22.9219 15.2812 22.9219C9.6552 22.9219 5.09375 27.4833 5.09375 33.1094C5.09375 38.7354 9.6552 43.2969 15.2812 43.2969H48.6046L48.6173 43.279C48.4798 42.4539 48.3906 41.6134 48.3906 40.75Z" fill="url(#paint0_linear)"/>
<path d="M130.634 64.4359C128.469 58.6061 123.213 54.498 117.156 53.6601V37.4493L157.59 23.0085L117.63 7.64062H112.062V53.7263C105.907 54.7604 100.78 59.1283 98.8544 65.2484L86.0385 106.026C85.2363 103.347 83.5859 100.961 81.2606 99.3001L69.0687 90.5923L73.3551 71.3125H80.6799C88.4377 71.3125 95.4187 67.0057 98.8952 60.068L108.583 40.7449C109.195 39.53 109.516 38.1675 109.516 36.8074C109.516 31.9582 105.573 28.0156 100.64 28.0156C97.2906 28.0156 94.2751 29.8774 92.7776 32.8751L84.5843 49.2617C83.2828 51.8671 80.6646 53.4844 77.751 53.4844H76.1261C79.437 50.2448 81.5 45.7368 81.5 40.75C81.5 30.9191 73.5028 22.9219 63.6719 22.9219C53.8409 22.9219 45.8438 30.9191 45.8438 40.75C45.8438 45.7368 47.9067 50.2448 51.2177 53.4844H49.8882C40.2304 53.4844 31.0897 58.5934 26.0291 66.8173L13.9951 86.3722C13.1699 87.7093 12.7344 89.2501 12.7344 90.8267C12.7344 92.039 12.9992 93.1902 13.4602 94.2344H2.54688V129.891H34.8056L30.8707 146.142C30.6669 146.99 30.5625 147.859 30.5625 148.725V149.468C30.5625 155.525 35.4907 160.453 41.5446 160.453C46.7071 160.453 51.2278 156.786 52.2924 151.733L60.608 112.233L66.2188 115.972V140.078C66.2188 145.697 70.7878 150.266 76.4062 150.266H160.453V144.713L130.634 64.4359ZM117.156 12.9152L142.941 22.8327L117.156 32.0422V12.9152ZM50.9375 40.75C50.9375 33.7283 56.6501 28.0156 63.6719 28.0156C70.6936 28.0156 76.4062 33.7283 76.4062 40.75C76.4062 47.7717 70.6936 53.4844 63.6719 53.4844C56.6501 53.4844 50.9375 47.7717 50.9375 40.75ZM40.8672 94.2344H30.1092L42.7111 74.4299C43.33 73.457 44.1705 72.6776 45.1434 72.1428L40.8672 94.2344ZM41.7229 99.3281L41.621 99.5344C38.5419 105.69 32.353 109.516 25.4688 109.516C18.5845 109.516 12.3956 105.69 9.31902 99.5344L9.21459 99.3281H21.2358H22.1986H41.7229ZM7.64062 106.159C11.9754 111.444 18.419 114.609 25.4688 114.609C32.5185 114.609 38.9621 111.444 43.2969 106.159V124.797H7.64062V106.159ZM71.3125 140.078V115.972C71.3125 114.266 70.4644 112.681 69.0432 111.734L61.8967 106.969H56.5126L47.3107 150.683C46.7377 153.393 44.3131 155.359 41.5446 155.359C38.2999 155.359 35.6562 152.716 35.6562 149.471V148.727C35.6562 148.261 35.7123 147.795 35.8218 147.342L40.0471 129.891H48.3906V94.2344H46.0551L51.4774 66.2188H48.3906C44.3258 66.2188 40.5946 68.2664 38.4145 71.6945L25.0765 92.6553C24.4449 93.646 23.3701 94.2344 22.1986 94.2344H21.2358C19.3588 94.2344 17.8281 92.7037 17.8281 90.8267C17.8281 90.195 18.0013 89.5787 18.3324 89.0413L30.3664 69.4864C34.5076 62.7575 41.9878 58.5781 49.8882 58.5781H77.751C82.6053 58.5781 86.9707 55.881 89.1406 51.5386L97.3339 35.152C97.963 33.8938 99.2313 33.1094 100.724 33.1094C102.761 33.1094 104.422 34.7674 104.422 36.8074C104.422 37.3805 104.287 37.9535 104.03 38.4629L94.3413 57.786C91.7359 62.9868 86.4995 66.2188 80.6825 66.2188H69.2699L63.3662 92.7801L78.3011 103.446C80.303 104.878 81.5 107.203 81.5 109.666V140.078C81.5 142.887 79.2155 145.172 76.4062 145.172C73.597 145.172 71.3125 142.887 71.3125 140.078ZM85.1777 145.172C86.0538 143.667 86.5938 141.942 86.5938 140.078V121.252L103.714 66.774C105.257 61.8712 109.745 58.5781 114.884 58.5781C119.754 58.5781 124.165 61.6446 125.861 66.2111L155.189 145.172H85.1777Z" fill="#197081"/>
<path d="M142.625 134.984H147.719V140.078H142.625V134.984Z" fill="#197081"/>
<path d="M132.438 134.984H137.531V140.078H132.438V134.984Z" fill="#197081"/>
<path d="M122.25 134.984H127.344V140.078H122.25V134.984Z" fill="#197081"/>
<defs>
<linearGradient id="paint0_linear" x1="16" y1="11" x2="33.0062" y2="43.2969" gradientUnits="userSpaceOnUse">
<stop stop-color="#CBEBF1"/>
<stop offset="1" stop-color="#CCE8EE" stop-opacity="0"/>
</linearGradient>
</defs>
</svg>
