<?xml version="1.0" encoding="UTF-8" standalone="no"?>
<svg
   xmlns:dc="http://purl.org/dc/elements/1.1/"
   xmlns:cc="http://creativecommons.org/ns#"
   xmlns:rdf="http://www.w3.org/1999/02/22-rdf-syntax-ns#"
   xmlns:svg="http://www.w3.org/2000/svg"
   xmlns="http://www.w3.org/2000/svg"
   xmlns:sodipodi="http://sodipodi.sourceforge.net/DTD/sodipodi-0.dtd"
   xmlns:inkscape="http://www.inkscape.org/namespaces/inkscape"
   version="1.1"
   id="svg2"
   xml:space="preserve"
   width="486.66666"
   height="158.03999"
   viewBox="0 0 486.66666 158.03999"
   sodipodi:docname="cbn-seeklogo.com.eps"><metadata
     id="metadata8"><rdf:RDF><cc:Work
         rdf:about=""><dc:format>image/svg+xml</dc:format><dc:type
           rdf:resource="http://purl.org/dc/dcmitype/StillImage" /></cc:Work></rdf:RDF></metadata><defs
     id="defs6" /><sodipodi:namedview
     pagecolor="#ffffff"
     bordercolor="#666666"
     borderopacity="1"
     objecttolerance="10"
     gridtolerance="10"
     guidetolerance="10"
     inkscape:pageopacity="0"
     inkscape:pageshadow="2"
     inkscape:window-width="640"
     inkscape:window-height="480"
     id="namedview4" /><g
     id="g10"
     inkscape:groupmode="layer"
     inkscape:label="ink_ext_XXXXXX"
     transform="matrix(1.3333333,0,0,-1.3333333,0,158.04)"><g
       id="g12"
       transform="scale(0.1)"><path
         d="m 1520.78,512.656 h 218.15 c 93.34,0 134.47,-51.683 134.47,-110.883 0,-35.582 -22.17,-138.457 -178.48,-138.457 h -239.38 l 65.24,249.34 z m 108.52,405.93 h 197.02 c 117.99,0 134.03,-59.176 134.03,-95.656 0,-29.766 -6.63,-121.672 -173.03,-121.672 h -213.4 l 55.38,217.328 z M 2575.4,1162.5 2269.28,22.75 h 314.29 l 175.8,656.199 307.75,-656.199 h 276.79 L 3650,1162.5 H 3335.77 L 3164.85,529.125 2870.13,1162.5 H 2575.4 Z m -1188.2,0 L 1081.08,22.75 h 591.08 c 87.92,0 164.43,8.9688 229.55,26.8516 65.17,17.9687 119.18,42.3281 162.02,73.2774 42.89,30.93 74.64,67.578 95.27,109.926 20.57,42.324 30.93,87.863 30.93,136.765 0,58.586 -16.06,106.696 -48.07,144.078 -31.99,37.524 -73.54,65.454 -124.51,83.879 80.26,19.547 142.96,54.813 188.06,105.836 45.06,51.051 67.51,112.832 67.51,185.633 0,35.813 -6.77,70.242 -20.34,103.414 -13.58,33.05 -36.4,62.36 -68.36,87.93 -32.07,25.5 -74.32,45.56 -127,60.17 -52.64,14.65 -118.05,21.99 -196.2,21.99 H 1387.2 Z m -675.661,22.82 c -109.715,0 -208.387,-20.06 -296.387,-60.26 C 327.273,1084.92 252.605,1032.48 191.281,967.992 129.961,903.359 82.7344,830.074 49.6641,748.082 16.5313,666.148 0,582.836 0,498.164 0,422.219 13.2695,353.547 39.9297,292.266 66.4648,230.902 103.625,178.512 151.387,135.102 199.145,91.6992 255.855,58.3398 321.57,34.9492 387.223,11.6797 459.691,0 538.93,0 647.457,0 740.211,19.7891 817.348,59.4609 894.398,99.0898 960.664,150.301 1016,213.301 L 802.695,402.191 C 765.805,365.219 728.383,336.73 690.348,316.652 652.328,296.531 608.367,286.52 558.461,286.52 c -66.246,0 -120.742,20.925 -163.641,62.718 -42.875,41.735 -64.281,99.051 -64.281,171.813 0,49.863 8.93,97.355 26.844,142.48 17.894,45.024 42.055,84.848 72.453,119.598 30.352,34.703 66.18,62.418 107.465,83.109 41.179,20.551 85.73,30.899 133.512,30.899 56.441,0 103.089,-12.77 140.023,-38.301 36.867,-25.516 66.723,-61.527 89.559,-108.266 L 1173.9,897.137 c -34.73,87.918 -91.13,157.933 -169.33,210.053 -78.129,52.06 -175.882,78.13 -293.031,78.13"
         style="fill:#e11d25;fill-opacity:1;fill-rule:nonzero;stroke:none"
         id="path14" /></g></g></svg>
