<svg width="92" height="92" viewBox="0 0 92 92" fill="none" xmlns="http://www.w3.org/2000/svg">
<g clip-path="url(#clip0)">
<path d="M85.7134 79.8729C86.7984 78.5308 87.3933 76.8591 87.4 75.1334V72.0667C87.4 67.8326 83.9675 64.4 79.7334 64.4C75.4993 64.4 72.0667 67.8326 72.0667 72.0667V75.1334C72.0734 76.8591 72.6683 78.5308 73.7534 79.8729C71.8495 80.2269 70.1508 81.2901 69 82.8475C67.8493 81.2901 66.1505 80.2269 64.2467 79.8729C65.3317 78.5308 65.9267 76.8591 65.9334 75.1334V72.0667C65.9334 67.8326 62.5008 64.4 58.2667 64.4C54.0326 64.4 50.6 67.8326 50.6 72.0667V75.1334C50.6068 76.8591 51.2017 78.5308 52.2867 79.8729C50.3829 80.2269 48.6841 81.2901 47.5334 82.8475C46.3826 81.2901 44.6839 80.2269 42.78 79.8729C43.8651 78.5308 44.46 76.8591 44.4667 75.1334V72.0667C44.4667 67.8326 41.0342 64.4 36.8 64.4C32.5659 64.4 29.1334 67.8326 29.1334 72.0667V75.1334C29.1401 76.8591 29.735 78.5308 30.8201 79.8729C27.1839 80.5382 24.5403 83.7035 24.5334 87.4V92H27.6001V87.4C27.6001 84.8595 29.6595 82.8 32.2 82.8H41.4C43.9406 82.8 46 84.8595 46 87.4V92H49.0667V87.4C49.0667 84.8595 51.1262 82.8 53.6667 82.8H62.8667C65.4072 82.8 67.4667 84.8595 67.4667 87.4V92H70.5334V87.4C70.5334 84.8595 72.5928 82.8 75.1334 82.8H84.3334C86.8739 82.8 88.9334 84.8595 88.9334 87.4V92H92V87.4C91.9931 83.7035 89.3495 80.5382 85.7134 79.8729ZM41.4 75.1334C41.4 77.6739 39.3406 79.7334 36.8 79.7334C34.2595 79.7334 32.2 77.6739 32.2 75.1334V72.0667C32.2 69.5261 34.2595 67.4667 36.8 67.4667C39.3406 67.4667 41.4 69.5261 41.4 72.0667V75.1334ZM62.8667 75.1334C62.8667 77.6739 60.8072 79.7334 58.2667 79.7334C55.7262 79.7334 53.6667 77.6739 53.6667 75.1334V72.0667C53.6667 69.5261 55.7262 67.4667 58.2667 67.4667C60.8072 67.4667 62.8667 69.5261 62.8667 72.0667V75.1334ZM84.3334 75.1334C84.3334 77.6739 82.2739 79.7334 79.7334 79.7334C77.1928 79.7334 75.1334 77.6739 75.1334 75.1334V72.0667C75.1334 69.5261 77.1928 67.4667 79.7334 67.4667C82.2739 67.4667 84.3334 69.5261 84.3334 72.0667V75.1334Z" fill="#197081"/>
<path d="M37.3608 30.7737C37.1822 30.7031 36.9921 30.6669 36.8 30.6667H30.6667C30.0219 30.6665 29.4459 31.0698 29.2253 31.6756L27.6 36.1453L27.5463 35.9996C26.376 32.803 23.3375 30.6744 19.9333 30.6667H19.8935C20.9081 29.3475 21.4611 27.7311 21.4667 26.0667V23C21.4667 18.7659 18.0341 15.3334 13.8 15.3334C9.56589 15.3334 6.13333 18.7659 6.13333 23V26.0667C6.13889 27.7311 6.69185 29.3475 7.70653 30.6667H7.66667C3.43467 30.6717 0.00498333 34.1014 0 38.3334V56.7334C0 57.5802 0.68655 58.2667 1.53333 58.2667H6.13333V73.14L3.32427 77.349C2.8543 78.0534 3.04424 79.0056 3.74881 79.4756C4.00085 79.6437 4.29698 79.7334 4.6 79.7334H23C23.8468 79.7336 24.5335 79.047 24.5335 78.2002C24.5335 77.8972 24.4438 77.6011 24.2757 77.349L21.4667 73.14V44.8286L21.8531 45.5952C23.4025 48.692 27.1687 49.9465 30.2655 48.397C31.6378 47.7105 32.7106 46.5444 33.281 45.1199L35.7711 38.8961L38.2245 32.7628C38.5354 31.975 38.1486 31.0845 37.3608 30.7737ZM9.2 23C9.2 20.4595 11.2595 18.4 13.8 18.4C16.3405 18.4 18.4 20.4595 18.4 23V26.0667C18.4 28.6072 16.3405 30.6667 13.8 30.6667C11.2595 30.6667 9.2 28.6072 9.2 26.0667V23ZM6.13333 55.2H3.06667V52.1334H6.13333V55.2ZM15.3333 76.6667V58.2667H12.2667V76.6667H7.4658L8.9424 74.451C9.10992 74.1988 9.19942 73.9029 9.2 73.6V55.2H18.4V73.6C18.4006 73.9029 18.4901 74.1988 18.6576 74.451L20.1342 76.6667H15.3333ZM30.4336 43.9883C29.7754 45.6303 27.9107 46.428 26.2687 45.7698C25.5417 45.4785 24.9468 44.9309 24.5962 44.2306L21.3133 37.648C20.9444 36.8857 20.0273 36.567 19.265 36.9361C18.7302 37.1951 18.3933 37.7394 18.4 38.3334V52.1334H9.2V38.3334C9.2 37.4866 8.51345 36.8 7.66667 36.8C6.81988 36.8 6.13333 37.4866 6.13333 38.3334V49.0667H3.06667V38.3334C3.06667 35.7928 5.12612 33.7334 7.66667 33.7334H12.2667V49.0667H15.3333V33.7334H19.9333C22.0486 33.7376 23.9369 35.0603 24.6637 37.0469L26.1587 41.1578C26.4475 41.9538 27.3271 42.3649 28.1231 42.076C28.5501 41.9212 28.8863 41.5848 29.0413 41.1578L29.5105 39.8667H32.0819L30.4336 43.9883ZM33.3086 36.8H30.6253L31.74 33.7334H34.5353L33.3086 36.8Z" fill="#197081"/>
<path d="M90.4667 9.2C91.3135 9.2 92 8.51345 92 7.66667V1.53333C92 0.68655 91.3135 0 90.4667 0H26.0667C25.2199 0 24.5334 0.68655 24.5334 1.53333V7.66667C24.5334 8.51345 25.2199 9.2 26.0667 9.2H27.6001V27.6H30.6667V9.2H85.8667V42.9333H36.8V46H56.7334V52.7773L46.7667 58.4691L48.2878 61.1309L56.7334 56.3086V61.3333H59.8V56.3086L68.2334 61.1309L69.7544 58.4691L59.8 52.7773V46H92V42.9333H88.9334V9.2H90.4667ZM27.6001 6.13333V3.06667H88.9334V6.13333H27.6001Z" fill="#C2FF01"/>
<path d="M75.5057 16.9126L69.3724 15.3793L68.6272 18.3539L71.4991 19.0715L59.8611 27.2181L53.0914 21.8024C52.5553 21.3742 51.8002 21.3541 51.2422 21.7533L40.5089 29.42L42.2906 31.9132L52.081 24.9212L58.8414 30.3308C59.3735 30.7573 60.1233 30.781 60.6814 30.3891L73.5998 21.3455V24.5333H76.6664V18.3999C76.6664 17.6967 76.1878 17.0836 75.5057 16.9126Z" fill="#197081"/>
</g>
<defs>
<clipPath id="clip0">
<rect width="92" height="92" fill="white"/>
</clipPath>
</defs>
</svg>
