<?xml version="1.0" encoding="utf-8"?>
<svg id="master-artboard" viewBox="0 0 250 250" version="1.1" xmlns="http://www.w3.org/2000/svg" x="0px" y="0px" style="enable-background:new 0 0 1400 980;" width="250px" height="250px"><rect id="ee-background" x="0" y="0" width="250" height="250" style="fill: white; fill-opacity: 0; pointer-events: none;"/><defs><style id="ee-google-fonts">@import url(https://fonts.googleapis.com/css?family=Fjalla+One:400|Roboto:100,100italic,300,300italic,400,400italic,500,500italic,700,700italic,900,900italic);</style></defs>

































































































<g transform="matrix(2.5, 0, 0, 2.5, -1505.1639404296875, -115.26051330566405)"><g id="g-1" transform="matrix(1, 0, 0, 1, 0, 0)">
	<g id="g-2">
		<path class="st0" d="M652,46c27.6,0,50,22.4,50,50s-22.4,50-50,50s-50-22.4-50-50S624.4,46,652,46z" style="fill: rgb(212, 0, 51);"/>
	</g>
</g></g><g transform="matrix(1.8000000715255737, 0, 0, 1.8000000715255737, -1048.7640380859375, -48.06053161621094)"><g id="g-3" transform="matrix(1, 0, 0, 1, 0, 0)">
	<g id="g-4">
		<path class="st0" d="M652,46c27.6,0,50,22.4,50,50s-22.4,50-50,50s-50-22.4-50-50S624.4,46,652,46z" style="fill: rgb(51, 51, 51); fill-opacity: 0; stroke: rgb(255, 255, 255); stroke-width: 3;"/>
	</g>
</g></g><g transform="matrix(0.11104220896959305, 0.10084467381238937, -0.8067610859870911, 0.8883368968963623, 192.71279907226562, 25.902906417846694)"><g id="g-5" transform="matrix(1, 0, 0, 1, 0, 0)">
	<g id="g-6">
		<path class="st0" d="M58,49h100v100H58V49z" style="fill: rgb(255, 255, 255);"/>
	</g>
</g></g><g transform="matrix(0.11129181832075119, -0.10056950896978378, 0.8045529127120972, 0.8903401494026184, 33.16581344604492, 47.457305908203125)"><g id="g-7" transform="matrix(1, 0, 0, 1, 0, 0)">
	<g id="g-8">
		<path class="st0" d="M58,49h100v100H58V49z" style="fill: rgb(255, 255, 255);"/>
	</g>
</g></g></svg>