<svg width="13" height="21" viewBox="0 0 13 21" fill="none" xmlns="http://www.w3.org/2000/svg">
<path d="M9.04231 5.15708C9.07104 5.12472 9.20541 5.01898 9.73307 5.01898L11.4631 5.01834C12.0259 5.01834 12.4836 4.5614 12.4836 3.99967V0.981814C12.4836 0.421052 12.0266 -0.0358887 11.4647 -0.03685L8.89494 -0.0410156C7.3089 -0.0410156 5.9606 0.481134 4.99581 1.4692C4.03535 2.45277 3.52759 3.82584 3.52759 5.43971V7.06736H1.56173C0.99891 7.06736 0.541077 7.5243 0.541077 8.08602V11.3362C0.541077 11.8979 0.99891 12.3549 1.56173 12.3549H3.52759V19.9404C3.52759 20.5021 3.98543 20.959 4.54825 20.959H7.91779C8.48061 20.959 8.93844 20.5021 8.93844 19.9404V12.355H11.3414C11.9043 12.355 12.3619 11.8979 12.3619 11.3365L12.3632 8.08618C12.3632 7.7172 12.1621 7.37578 11.8381 7.19521C11.688 7.11158 11.5134 7.06736 11.3332 7.06736H8.93844V5.78145C8.93844 5.36232 8.99495 5.2106 9.04231 5.15708Z" fill="white"/>
</svg>
