<svg width="84" height="84" viewBox="0 0 84 84" fill="none" xmlns="http://www.w3.org/2000/svg">
<circle cx="42" cy="42" r="42" fill="#C2FF01"/>
<g filter="url(#filter0_d)">
<circle cx="42" cy="42" r="29.4" fill="#C2FF01"/>
<circle cx="42" cy="42" r="28.9" stroke="#00AA54"/>
</g>
<g clip-path="url(#clip0)">
<path d="M40.6578 50.8825C40.3771 51.1648 39.9943 51.3223 39.5965 51.3223C39.1988 51.3223 38.8159 51.1648 38.5353 50.8825L30.0597 42.4056C29.1801 41.526 29.1801 40.0997 30.0597 39.2218L31.1209 38.1602C32.0008 37.2807 33.4254 37.2807 34.305 38.1602L39.5965 43.452L53.8949 29.1533C54.7748 28.2738 56.2008 28.2738 57.079 29.1533L58.1403 30.2149C59.0198 31.0945 59.0198 32.5205 58.1403 33.3987L40.6578 50.8825Z" fill="#00AA54"/>
</g>
<defs>
<filter id="filter0_d" x="7.60001" y="9.59998" width="68.8" height="68.8" filterUnits="userSpaceOnUse" color-interpolation-filters="sRGB">
<feFlood flood-opacity="0" result="BackgroundImageFix"/>
<feColorMatrix in="SourceAlpha" type="matrix" values="0 0 0 0 0 0 0 0 0 0 0 0 0 0 0 0 0 0 127 0"/>
<feOffset dy="2"/>
<feGaussianBlur stdDeviation="2.5"/>
<feColorMatrix type="matrix" values="0 0 0 0 0 0 0 0 0 0.666667 0 0 0 0 0.329412 0 0 0 0.75 0"/>
<feBlend mode="normal" in2="BackgroundImageFix" result="effect1_dropShadow"/>
<feBlend mode="normal" in="SourceGraphic" in2="effect1_dropShadow" result="shape"/>
</filter>
<clipPath id="clip0">
<rect width="29.4" height="29.4" fill="white" transform="translate(29.4 25.2)"/>
</clipPath>
</defs>
</svg>
