<svg width="92" height="92" viewBox="0 0 92 92" fill="none" xmlns="http://www.w3.org/2000/svg">
<path d="M32.7591 26.821L32.9101 26.5176L30.3384 25.2311L30.1875 25.5358C29.6398 26.6312 28.5386 27.3126 27.3125 27.3126C26.0863 27.3126 24.9851 26.6312 24.4375 25.5358L24.2865 25.2325L21.7148 26.5191L21.8658 26.8224C22.9036 28.8981 24.9909 30.1876 27.3125 30.1876C29.634 30.1876 31.7213 28.8981 32.7591 26.821Z" fill="#197081"/>
<path d="M90.5625 10.0625V7.1875C90.5625 5.60194 89.2731 4.3125 87.6875 4.3125H42.3487C40.7675 2.553 38.4833 1.4375 35.9375 1.4375H21.5625C15.2217 1.4375 10.0625 6.59669 10.0625 12.9375C10.0625 14.7257 10.5383 16.7914 11.0069 18.4201C10.4133 19.3243 10.0625 20.4024 10.0625 21.5625C10.0625 24.7336 12.6414 27.3125 15.8125 27.3125H16.1906C16.9438 30.222 18.8054 32.683 21.3009 34.2226L20.3493 38.9821L13.6261 40.0171C6.56362 41.1024 1.4375 47.0781 1.4375 54.2254V64.6875C1.4375 69.4442 5.30581 73.3125 10.0625 73.3125V90.5625H44.5625V73.3125H87.6875C89.2731 73.3125 90.5625 72.0231 90.5625 70.4375V67.5625C90.5625 65.9769 89.2731 64.6875 87.6875 64.6875V12.9375C89.2731 12.9375 90.5625 11.6481 90.5625 10.0625ZM87.6875 7.1875V10.0625H44.5625C44.5625 9.05338 44.3785 8.08881 44.0594 7.1875H87.6875ZM12.9375 21.5625C12.9375 19.9769 14.2269 18.6875 15.8125 18.6875H15.8269C15.8254 18.7479 15.8125 18.8039 15.8125 18.8643V24.4375C14.2269 24.4375 12.9375 23.1481 12.9375 21.5625ZM16.514 15.8125H15.8125C14.9586 15.8125 14.1565 16.0109 13.4277 16.3458C13.1646 15.2447 12.9375 13.9955 12.9375 12.9375C12.9375 8.18081 16.8058 4.3125 21.5625 4.3125H35.9375C39.1086 4.3125 41.6875 6.89137 41.6875 10.0625C41.6875 13.2336 39.1086 15.8125 35.9375 15.8125H27.1831C25.668 15.8125 24.4375 14.582 24.4375 13.0669V12.8512C24.4375 11.3131 25.668 10.0625 27.2909 10.0625C28.8894 10.0625 30.1875 11.3519 30.1875 12.9375H33.0625C33.0625 9.76637 30.4736 7.1875 27.1831 7.1875C24.4447 7.1875 22.1648 9.17412 21.6689 11.7889L21.2577 11.891C19.1073 12.4301 17.411 13.9078 16.514 15.8125ZM38.8125 18.6875C40.3981 18.6875 41.6875 19.9769 41.6875 21.5625C41.6875 23.1481 40.3981 24.4375 38.8125 24.4375V18.6875ZM18.6875 24.4375V18.8643C18.6875 16.9237 19.9798 15.2404 21.8385 14.7186C22.5501 17.0085 24.6632 18.6875 27.1831 18.6875H35.9375V24.4375C35.9375 29.1942 32.0692 33.0625 27.3125 33.0625C22.5558 33.0625 18.6875 29.1942 18.6875 24.4375ZM18.6875 73.3125H33.0625C34.1147 73.3125 35.0879 73.0078 35.9375 72.5133V79.0625H18.6875V73.3125ZM24.4375 63.8451L25.6666 62.6161C26.1841 62.0986 26.8726 61.8125 27.6058 61.8125C28.6508 61.8125 29.5895 62.3933 30.0567 63.3262L30.7352 64.6875H33.0625C34.6481 64.6875 35.9375 65.9769 35.9375 67.5625C35.9375 69.1481 34.6481 70.4375 33.0625 70.4375H24.4375V63.8451ZM35.9375 62.6117C35.0879 62.1172 34.1147 61.8125 33.0625 61.8125H32.5076C31.5143 60.0329 29.6585 58.9375 27.6058 58.9375C26.105 58.9375 24.6963 59.5211 23.6339 60.5834L22.4049 61.8125H18.6875V56.0625H35.9375V62.6117ZM29.0648 44.5625H25.5588L24.84 41.6875H29.7836L29.0648 44.5625ZM25.6551 47.4375H28.9699L29.9287 53.1875H24.6963L25.6551 47.4375ZM31.6552 46.0589L32.7463 41.6875H32.9849L36.3199 42.021L32.3164 50.0279L31.6552 46.0589ZM27.3125 35.9375C28.4683 35.9375 29.5823 35.7621 30.6346 35.443L31.3088 38.8125H23.3162L23.9904 35.443C25.0427 35.7621 26.1567 35.9375 27.3125 35.9375ZM21.6718 41.6875H21.8787L22.9712 46.0589L22.31 50.0279L18.3914 42.1921L21.6718 41.6875ZM4.3125 64.6875V54.2254C4.3125 48.507 8.41369 43.7273 14.0645 42.8591L15.4057 42.6521L20.6741 53.1875H18.6875C17.1019 53.1875 15.8125 54.4769 15.8125 56.0625V61.8125H12.9375V50.3125H10.0625V62.6549L7.60869 65.1087L9.64131 67.1413L12.0951 64.6875H21.5625V70.4375H10.0625C6.89137 70.4375 4.3125 67.8586 4.3125 64.6875ZM41.6875 87.6875H12.9375V73.3125H15.8125V79.0625C15.8125 80.6481 17.1019 81.9375 18.6875 81.9375H35.9375C37.5231 81.9375 38.8125 80.6481 38.8125 79.0625V56.0625C38.8125 54.4769 37.5231 53.1875 35.9375 53.1875H33.9509L39.3803 42.3272L42.1877 42.6075C45.1519 42.9036 47.9421 44.2261 50.0494 46.3335L56.0625 52.3451V56.0625H58.9375V38.8125H64.6875V59.7411C64.6875 62.468 62.468 64.6875 59.7411 64.6875C58.6227 64.6875 57.5244 64.3022 56.6504 63.6022L44.5625 53.9336V50.3125H41.6875V87.6875ZM64.6875 35.9375H58.0951L56.8661 34.7084C56.3471 34.1895 56.0625 33.5024 56.0625 32.7692C56.0625 31.7242 56.6433 30.7855 57.5762 30.3183L58.9375 29.6398V27.3125C58.9375 25.7269 60.2269 24.4375 61.8125 24.4375C63.3981 24.4375 64.6875 25.7269 64.6875 27.3125V35.9375ZM44.5625 57.6164L53.4031 64.6875H44.5625V57.6164ZM87.6875 70.4375H44.5625V67.5625H87.6875V70.4375ZM84.8125 64.6875H65.7929C66.8969 63.3391 67.5625 61.6156 67.5625 59.7411V27.3125C67.5625 24.1414 64.9836 21.5625 61.8125 21.5625C58.6414 21.5625 56.0625 24.1414 56.0625 27.3125V27.8674C54.2829 28.8607 53.1875 30.7165 53.1875 32.7692C53.1875 34.27 53.7711 35.6787 54.8334 36.7411L56.0625 37.9701V48.2799L52.0821 44.2994C49.5075 41.7249 46.0949 40.1077 42.4738 39.7454L34.2628 38.9246L33.3213 34.2226C35.8182 32.683 37.6783 30.222 38.4316 27.3125H38.8125C41.9836 27.3125 44.5625 24.7336 44.5625 21.5625C44.5625 19.4048 43.3536 17.5433 41.5912 16.56C42.6995 15.594 43.5563 14.3506 44.0579 12.9375H84.8125V64.6875Z" fill="#197081"/>
<path d="M70.4375 44.5625H81.9375V47.4375H70.4375V44.5625Z" fill="#C2FF01"/>
<path d="M70.4375 38.8125H81.9375V41.6875H70.4375V38.8125Z" fill="#C2FF01"/>
<path d="M76.1875 50.3125H81.9375V53.1875H76.1875V50.3125Z" fill="#C2FF01"/>
<path d="M76.1875 56.0625H81.9375V58.9375H76.1875V56.0625Z" fill="#C2FF01"/>
<path d="M47.4375 15.8125H58.9375V18.6875H47.4375V15.8125Z" fill="#C2FF01"/>
<path d="M47.4375 21.5625H53.1875V24.4375H47.4375V21.5625Z" fill="#C2FF01"/>
</svg>
