<svg width="100" height="16" viewBox="0 0 100 16" fill="none" xmlns="http://www.w3.org/2000/svg">
<path d="M94.3188 15.4077C95.3825 15.4077 96.3978 15.166 97.3647 14.7308C98.3317 14.2473 99.1053 13.6188 99.7821 12.7969L99.0086 12.2167C98.4284 12.9419 97.7032 13.4738 96.9296 13.8606C96.1077 14.2473 95.2374 14.4407 94.3188 14.4407C93.2068 14.4407 92.2398 14.1506 91.2729 13.6188C90.3542 13.087 89.629 12.3134 89.0488 11.3948C88.517 10.4762 88.2269 9.41253 88.2269 8.34887C88.2269 7.23686 88.517 6.22155 89.0488 5.30294C89.5807 4.38432 90.3542 3.61075 91.2729 3.07892C92.1915 2.54709 93.2068 2.257 94.3188 2.257C95.1891 2.257 95.9626 2.45039 96.7362 2.78883C97.5098 3.12727 98.1866 3.6591 98.7668 4.28762L99.492 3.61075C98.8152 2.88553 98.0416 2.30535 97.123 1.91856C96.2044 1.53178 95.2858 1.29004 94.3188 1.29004C93.0617 1.29004 91.9014 1.62848 90.7894 2.257C89.7257 2.88553 88.8555 3.75579 88.2269 4.81945C87.5984 5.88311 87.3083 7.09182 87.3083 8.34887C87.3083 9.60592 87.5984 10.8146 88.2269 11.8783C88.8555 12.9419 89.7257 13.8122 90.7894 14.4891C91.9014 15.1176 93.0617 15.4077 94.3188 15.4077ZM84.5525 15.2627V14.2473H76.5267V8.83235H82.7636V7.86539H76.5267V2.40205H84.5525V1.43508H75.5597V15.2627H84.5525ZM72.4654 1.43508V2.40205H67.0021V15.2627H66.0351V2.40205H60.5234V1.43508H72.4654Z" fill="white"/>
<path fill-rule="evenodd" clip-rule="evenodd" d="M37.0745 8.92862V13.8601H40.7006C41.2808 13.8601 41.861 13.7634 42.3928 13.4734C42.8279 13.2316 43.2147 12.9415 43.5048 12.5547C43.7466 12.2163 43.8916 11.8295 43.8916 11.3944C43.8916 10.9592 43.7466 10.5241 43.4565 10.1857C43.1664 9.79889 42.8279 9.5088 42.3928 9.31541C41.6676 8.97697 40.7973 8.92862 40.0238 8.92862H37.0745ZM37.0745 6.9947H39.5886C39.8787 6.9947 40.1688 6.9947 40.4589 6.94635C40.7006 6.898 40.894 6.84965 41.1358 6.75296C41.4742 6.60791 41.7643 6.36617 42.006 6.07608C42.2961 5.786 42.3928 5.39921 42.3928 4.96408C42.3928 4.62564 42.2961 4.2872 42.1027 3.94877C41.861 3.61033 41.5709 3.36859 41.1841 3.17519C40.7006 2.93345 40.1688 2.88511 39.637 2.88511H37.1229V6.9947H37.0745ZM55.06 7.47818C55.4952 7.28479 55.8336 6.94635 56.1237 6.60791C56.4138 6.22113 56.5588 5.83434 56.5588 5.35086C56.5588 4.91573 56.4138 4.52894 56.172 4.19051C55.8819 3.75537 55.4952 3.46528 55.06 3.27189C54.5282 2.9818 53.948 2.88511 53.3678 2.88511H49.9835V15.3106C49.9835 15.5523 49.7901 15.7941 49.5 15.7941H48.533C48.2913 15.7941 48.0495 15.6007 48.0495 15.3106V1.43466C48.0495 1.19292 48.2429 0.95118 48.533 0.95118H53.3678C54.0447 0.95118 54.7216 1.04788 55.3501 1.28962C55.9786 1.53136 56.5105 1.82145 56.9939 2.25658C57.4291 2.64337 57.8159 3.12685 58.0576 3.65868C58.2994 4.19051 58.4444 4.72234 58.4444 5.30251C58.4444 6.17278 58.1543 6.9947 57.6225 7.67157C57.139 8.3001 56.5105 8.83193 55.7852 9.17037C55.3501 9.36376 54.8666 9.5088 54.3348 9.6055C54.1898 9.6055 54.0447 9.65385 53.8997 9.65385L58.2994 14.9721C58.396 15.1172 58.4444 15.3106 58.3477 15.4556C58.251 15.6007 58.106 15.7457 57.9126 15.7457H56.6555C56.5105 15.7457 56.3654 15.6974 56.2687 15.5523L50.5153 8.54184C50.4186 8.3968 50.3703 8.2034 50.467 8.05836C50.5636 7.91331 50.7087 7.76827 50.9021 7.76827H52.5943C53.4645 7.81662 54.3348 7.76827 55.06 7.47818ZM43.2147 7.57488C43.94 7.91331 44.5201 8.3968 45.0036 9.02532C45.5354 9.7022 45.7772 10.5241 45.7772 11.346C45.7772 11.9262 45.6321 12.458 45.3904 12.9899C45.1487 13.5217 44.7619 14.0052 44.3267 14.392C43.8433 14.8271 43.2631 15.1172 42.6829 15.3589C42.0544 15.6007 41.3775 15.6974 40.7006 15.6974H35.6241C35.479 15.6974 35.3823 15.649 35.2856 15.5523C35.1889 15.4556 35.1406 15.3589 35.1406 15.2139V1.38631C35.1406 1.14457 35.334 0.902832 35.6241 0.902832H39.5886C40.8457 0.902832 42.0544 1.24127 43.0213 2.11154C43.4081 2.49832 43.7466 2.88511 43.94 3.36859C44.1333 3.85207 44.2784 4.33555 44.2784 4.86738C44.2784 5.49591 44.1333 6.12443 43.8433 6.65626C43.6499 7.04305 43.4565 7.33314 43.2147 7.57488ZM26.2929 10.1373L22.1833 15.7941C22.0382 15.9391 21.8449 16.0358 21.6515 15.9875C21.4581 15.9391 21.313 15.7457 21.313 15.5523V1.43466C21.313 1.19292 21.5064 0.95118 21.7965 0.95118H22.7635C23.0052 0.95118 23.2469 1.14457 23.2469 1.43466V11.1043L30.4508 1.14457C30.5475 1.04788 30.6926 0.95118 30.8376 0.95118H32.0463C32.2397 0.95118 32.3847 1.04788 32.4814 1.19292C32.5781 1.33797 32.5298 1.53136 32.4331 1.6764L27.4532 8.54184L32.8682 14.9721C32.9649 15.1172 33.0133 15.3106 32.9166 15.4556C32.8199 15.649 32.6748 15.7457 32.4814 15.7457H31.2244C31.0793 15.7457 30.9343 15.6974 30.886 15.6007L26.2929 10.1373Z" fill="white"/>
<path fill-rule="evenodd" clip-rule="evenodd" d="M0.383789 0.467773H16.1398L0.383789 16.0003V0.467773Z" fill="#F7A500"/>
<path fill-rule="evenodd" clip-rule="evenodd" d="M0.383789 0.467773L16.028 16.0003H0.383789V0.467773Z" fill="#1068B1"/>
<path fill-rule="evenodd" clip-rule="evenodd" d="M8.26179 8.23402L0.383789 16.0003V0.467773L8.26179 8.23402Z" fill="#2DA337"/>
</svg>
