<svg width="100" height="100" viewBox="0 0 100 100" fill="none" xmlns="http://www.w3.org/2000/svg">
<g clip-path="url(#clip0)">
<path d="M60.9375 81.25V60.9375H62.5C65.9469 60.9375 68.75 58.1344 68.75 54.6875V42.1875C68.75 34.1734 63.6875 27.3375 56.5984 24.6594C60.1344 22.4484 62.5 18.5312 62.5 14.0625C62.5 7.17031 56.8922 1.5625 50 1.5625C43.1078 1.5625 37.5 7.17031 37.5 14.0625C37.5 18.5312 39.8656 22.4484 43.4016 24.6594C36.3125 27.3375 31.25 34.1734 31.25 42.1875V54.6875C31.25 58.1344 34.0531 60.9375 37.5 60.9375H39.0625V81.25C39.0625 84.6969 41.8656 87.5 45.3125 87.5C47.1891 87.5 48.8531 86.6531 50 85.3406C51.1469 86.6531 52.8109 87.5 54.6875 87.5C58.1344 87.5 60.9375 84.6969 60.9375 81.25ZM51.5297 40.2L50 42.4953L48.4703 40.1984L49.3719 26.5938C49.5812 26.5859 49.7875 26.5625 50 26.5625C50.2125 26.5625 50.4187 26.5859 50.6297 26.5938L51.5297 40.2ZM40.625 14.0625C40.625 8.89219 44.8297 4.6875 50 4.6875C55.1703 4.6875 59.375 8.89219 59.375 14.0625C59.375 19.2328 55.1703 23.4375 50 23.4375C44.8297 23.4375 40.625 19.2328 40.625 14.0625ZM57.8125 81.25C57.8125 82.9734 56.4109 84.375 54.6875 84.375C52.9641 84.375 51.5625 82.9734 51.5625 81.25V53.125H48.4375V81.25C48.4375 82.9734 47.0359 84.375 45.3125 84.375C43.5891 84.375 42.1875 82.9734 42.1875 81.25V35.9375H39.0625V57.8125H37.5C35.7766 57.8125 34.375 56.4109 34.375 54.6875V42.1875C34.375 34.8812 39.4219 28.7484 46.2078 27.0469L45.2797 41.05L50 48.1297L54.7203 41.0516L53.7922 27.0484C60.5781 28.7484 65.625 34.8812 65.625 42.1875V54.6875C65.625 56.4109 64.2234 57.8125 62.5 57.8125H60.9375V35.9375H57.8125V81.25Z" fill="#197081"/>
<path d="M14.0625 17.1875H34.375V9.375C34.375 5.06719 30.8703 1.5625 26.5625 1.5625H14.0625C9.75469 1.5625 6.25 5.06719 6.25 9.375C6.25 13.6828 9.75469 17.1875 14.0625 17.1875ZM14.0625 4.6875H26.5625C29.1469 4.6875 31.25 6.79063 31.25 9.375V14.0625H14.0625C11.4781 14.0625 9.375 11.9594 9.375 9.375C9.375 6.79063 11.4781 4.6875 14.0625 4.6875Z" fill="#C2FF01"/>
<path d="M92.3125 49.625H72V41.8125C72 37.5047 75.5047 34 79.8125 34H92.3125C96.6203 34 100.125 37.5047 100.125 41.8125C100.125 46.1203 96.6203 49.625 92.3125 49.625ZM92.3125 37.125H79.8125C77.2281 37.125 75.125 39.2281 75.125 41.8125V46.5H92.3125C94.8969 46.5 97 44.3969 97 41.8125C97 39.2281 94.8969 37.125 92.3125 37.125Z" fill="#C2FF01"/>
<path d="M25 7.8125H28.125V10.9375H25V7.8125Z" fill="#C2FF01"/>
<path d="M81.375 40.25H78.25V43.375H81.375V40.25Z" fill="#C2FF01"/>
<path d="M18.75 7.8125H21.875V10.9375H18.75V7.8125Z" fill="#C2FF01"/>
<path d="M87.625 40.25H84.5V43.375H87.625V40.25Z" fill="#C2FF01"/>
<path d="M12.5 7.8125H15.625V10.9375H12.5V7.8125Z" fill="#C2FF01"/>
<path d="M93.875 40.25H90.75V43.375H93.875V40.25Z" fill="#C2FF01"/>
<g clip-path="url(#clip1)">
<path d="M89.1736 91.0348C87.4717 89.333 85.4461 88.0732 83.236 87.3106C85.6031 85.6802 87.1582 82.9518 87.1582 79.8666C87.1582 74.8857 83.1059 70.8334 78.125 70.8334C73.1441 70.8334 69.0918 74.8857 69.0918 79.8666C69.0918 82.9518 70.6469 85.6802 73.014 87.3106C70.804 88.0732 68.7783 89.333 67.0765 91.0348C64.1253 93.986 62.5 97.9098 62.5 102.083H64.9414C64.9414 94.8139 70.8555 88.8998 78.125 88.8998C85.3945 88.8998 91.3086 94.8139 91.3086 102.083H93.75C93.75 97.9098 92.1247 93.986 89.1736 91.0348ZM78.125 86.4584C74.4903 86.4584 71.5332 83.5013 71.5332 79.8666C71.5332 76.2318 74.4903 73.2748 78.125 73.2748C81.7597 73.2748 84.7168 76.2318 84.7168 79.8666C84.7168 83.5013 81.7597 86.4584 78.125 86.4584Z" fill="#197081"/>
</g>
</g>
<defs>
<clipPath id="clip0">
<rect width="100" height="100" fill="white"/>
</clipPath>
<clipPath id="clip1">
<rect width="31.25" height="31.25" fill="white" transform="translate(62.5 70.8334)"/>
</clipPath>
</defs>
</svg>
