<svg width="103" height="103" viewBox="0 0 103 103" fill="none" xmlns="http://www.w3.org/2000/svg">
<g clip-path="url(#clip0)">
<path d="M52.8447 56.213C52.6542 56.1717 52.4586 56.1643 52.2656 56.1932C50.3311 55.9679 48.8718 54.3312 48.8685 52.3844C48.8685 51.4513 48.112 50.6949 47.179 50.6949C46.2459 50.6949 45.4895 51.4513 45.4895 52.3844C45.4944 55.6355 47.669 58.4832 50.8038 59.3436V61.0331C50.8038 61.9662 51.5603 62.7226 52.4933 62.7226C53.4263 62.7226 54.1828 61.9662 54.1828 61.0331V59.4459C57.801 58.6886 60.2602 55.3187 59.8799 51.6419C59.4988 47.9651 56.4011 45.171 52.7045 45.1702C50.586 45.1702 48.8685 43.4526 48.8685 41.3342C48.8685 39.2157 50.586 37.4981 52.7045 37.4981C54.823 37.4981 56.5405 39.2157 56.5405 41.3342C56.5405 42.2672 57.297 43.0237 58.23 43.0237C59.163 43.0237 59.9195 42.2672 59.9195 41.3342C59.9145 37.9205 57.523 34.9763 54.1828 34.2718V32.7341C54.1828 31.801 53.4263 31.0446 52.4933 31.0446C51.5603 31.0446 50.8038 31.801 50.8038 32.7341V34.3749C47.3176 35.3269 45.0737 38.7116 45.5538 42.2936C46.0339 45.8755 49.0904 48.5492 52.7045 48.5483C54.7949 48.5483 56.5001 50.2222 56.538 52.3118C56.5768 54.4014 54.9335 56.1371 52.8447 56.213Z" fill="#197081"/>
<path d="M28.2051 46.9892C28.2051 60.5201 39.1736 71.4886 52.7044 71.4886C66.2353 71.4886 77.2038 60.5201 77.2038 46.9892C77.2038 33.4584 66.2353 22.4899 52.7044 22.4899C39.1802 22.5047 28.2208 33.465 28.2051 46.9892ZM52.7044 25.8689C64.3692 25.8689 73.8248 35.3244 73.8248 46.9892C73.8248 58.654 64.3692 68.1096 52.7044 68.1096C41.0396 68.1096 31.5841 58.654 31.5841 46.9892C31.5973 35.3302 41.0454 25.8821 52.7044 25.8689Z" fill="#197081"/>
<path d="M85.5324 75.6538L72.2977 81.9069C70.4705 78.5081 66.9653 76.3451 63.1078 76.2362L50.8903 75.9004C48.9558 75.8452 47.0576 75.3551 45.3376 74.4667L44.0944 73.8224C37.729 70.5044 30.142 70.5127 23.7833 73.8438L23.8608 71.0275C23.8864 70.0944 23.1514 69.3173 22.2183 69.2918L8.82116 68.923C7.88814 68.8974 7.11186 69.6325 7.08629 70.5655L6.27701 99.9651C6.25144 100.898 6.98647 101.675 7.91949 101.701L21.3167 102.069H21.3629C22.2786 102.069 23.0276 101.341 23.0524 100.426L23.0911 99.0197L26.5716 97.1561C27.9377 96.4211 29.5348 96.2462 31.0272 96.6686L51.8109 102.502C51.8472 102.512 51.8835 102.521 51.9207 102.529C53.4229 102.843 54.954 103.001 56.4884 103C59.7387 103.002 62.9511 102.301 65.9052 100.945C65.9778 100.912 66.0479 100.873 66.1147 100.83L96.2493 81.3377C97 80.8518 97.2426 79.866 96.8029 79.0872C94.5656 75.1176 89.6035 73.6054 85.5324 75.6538ZM9.70138 98.3696L10.4174 72.3474L20.4365 72.6229L19.7204 98.646L9.70138 98.3696ZM64.3832 97.9274C60.713 99.5839 56.6138 100.041 52.6689 99.235L31.9412 93.4166C29.6082 92.7575 27.1111 93.0305 24.977 94.178L23.1984 95.1308L23.6744 77.8292C29.3104 74.0806 36.5386 73.6953 42.541 76.8227L43.7842 77.467C45.9571 78.5889 48.3536 79.2077 50.7979 79.2786L63.0162 79.6144C66.448 79.7134 69.3626 82.1569 70.0588 85.5194L51.8596 85.017C50.9266 84.9914 50.1503 85.7272 50.1239 86.6594C50.0983 87.5925 50.8342 88.3696 51.7664 88.3951L71.8506 88.9478H71.8976C72.8125 88.947 73.5607 88.2186 73.5855 87.3045C73.6061 86.5703 73.5517 85.8353 73.4221 85.1127L86.9967 78.6987C87.0099 78.6929 87.0231 78.6863 87.0363 78.6797C88.9617 77.7054 91.2897 78.0313 92.8736 79.4972L64.3832 97.9274Z" fill="#197081"/>
<path d="M54.3939 17.7397V1.6895C54.3939 0.756479 53.6374 0 52.7044 0C51.7714 0 51.0149 0.756479 51.0149 1.6895V17.7397C51.0149 18.6727 51.7714 19.4292 52.7044 19.4292C53.6374 19.4292 54.3939 18.6727 54.3939 17.7397Z" fill="#197081"/>
<path d="M67.0651 17.7397V10.137C67.0651 9.20399 66.3086 8.44751 65.3756 8.44751C64.4426 8.44751 63.6861 9.20399 63.6861 10.137V17.7397C63.6861 18.6728 64.4426 19.4292 65.3756 19.4292C66.3086 19.4292 67.0651 18.6728 67.0651 17.7397Z" fill="#197081"/>
<path d="M41.7227 17.7397V10.137C41.7227 9.20399 40.9663 8.44751 40.0332 8.44751C39.1002 8.44751 38.3437 9.20399 38.3437 10.137V17.7397C38.3437 18.6728 39.1002 19.4292 40.0332 19.4292C40.9663 19.4292 41.7227 18.6728 41.7227 17.7397Z" fill="#197081"/>
</g>
<defs>
<clipPath id="clip0">
<rect width="103" height="103" fill="white"/>
</clipPath>
</defs>
</svg>
