<svg width="46" height="45" viewBox="0 0 46 45" fill="none" xmlns="http://www.w3.org/2000/svg">
<path d="M7.33333 0H3.66667C1.64267 0 0 1.7022 0 3.79956V26.5969C0 28.6943 1.64267 30.3965 3.66667 30.3965H7.33333C9.35733 30.3965 11 28.6943 11 26.5969V3.79956C11 1.7022 9.35733 0 7.33333 0Z" fill="#D50033"/>
<path d="M46 21.0276C46 26.0305 41.8109 30.0931 36.6521 30.0931H28.9333C29.36 31.4097 29.7479 33.1777 29.7479 35.2466C29.7479 41.3404 26.3733 44.124 23.2703 44.124C18.6158 44.124 18.6158 39.3091 18.6158 36.9769C18.6158 34.1181 16.0558 31.5601 14 29.9803C14.6206 28.8894 14.9697 27.648 14.9697 26.3315C14.9697 25.1616 15.0124 3.80302 14.8921 2.74599C18.2667 1.39181 23.6582 0 31.4158 0H34.3636C39.0182 0 43.0909 3.27263 43.7891 7.59851L43.6339 7.63613C45.5345 11.473 46 20.9147 46 21.0276Z" fill="#D50033"/>
</svg>
