<svg width="46" height="45" viewBox="0 0 46 45" fill="none" xmlns="http://www.w3.org/2000/svg">
<path d="M7.33333 44.124H3.66667C1.64267 44.124 0 42.4218 0 40.3245V17.5271C0 15.4297 1.64267 13.7275 3.66667 13.7275H7.33333C9.35733 13.7275 11 15.4297 11 17.5271V40.3245C11 42.4218 9.35733 44.124 7.33333 44.124Z" fill="#C2FF01"/>
<path d="M46 23.0965C46 18.0935 41.8109 14.0309 36.6521 14.0309H28.9333C29.36 12.7143 29.7479 10.9464 29.7479 8.87747C29.7479 2.78361 26.3733 0 23.2703 0C18.6158 0 18.6158 4.8149 18.6158 7.14711C18.6158 10.006 16.0558 12.5639 14 14.1438C14.6206 15.2346 14.9697 16.476 14.9697 17.7926C14.9697 18.9624 15.0124 40.321 14.8921 41.378C18.2667 42.7322 23.6582 44.124 31.4158 44.124H34.3636C39.0182 44.124 43.0909 40.8514 43.7891 36.5255L43.6339 36.4879C45.5345 32.651 46 23.2093 46 23.0965Z" fill="#C2FF01"/>
</svg>
