<svg width="95" height="95" viewBox="0 0 95 95" fill="none" xmlns="http://www.w3.org/2000/svg">
<g clip-path="url(#clip0)">
<path d="M22.9836 6.12891H38.3062V9.19342H22.9836V6.12891Z" fill="#197081"/>
<path d="M27.5804 18.387H24.5159V35.2418H21.4514V22.9837H18.3868V35.2418H15.3223V27.5805H12.2578V35.2418H9.1933V38.3063H30.6449V35.2418H27.5804V18.387Z" fill="#9ED000"/>
<path d="M9.1933 41.371H12.2578V44.4355H9.1933V41.371Z" fill="#9ED000"/>
<path d="M15.3223 41.371H30.6448V44.4355H15.3223V41.371Z" fill="#9ED000"/>
<path d="M90.4032 62.8226C92.9373 62.8226 95 60.7599 95 58.2258V34.6322C95 31.6013 92.7368 28.9932 89.7381 28.5645L84.2742 27.7841V25.2209C86.1499 23.5368 87.3387 21.1022 87.3387 18.3871V15.3226C87.3387 10.2522 83.2155 6.12903 78.1452 6.12903C73.0748 6.12903 68.9516 10.2522 68.9516 15.3226V18.3871C68.9516 21.1007 70.1405 23.5353 72.0161 25.2209V27.7841L63.4293 29.0119L58.1555 22.9839H58.2258V15.3226H61.2903V6.12903H45.0699L38.9409 0H22.3494L16.2204 6.12903H0V15.3226H3.06452V52.0968H0V61.2903H15.3226V65.5991L5.08084 91.9355H0V95H95V91.9355H88.871V62.5405C89.352 62.7126 89.8638 62.8226 90.4032 62.8226ZM79.5959 43.8826L78.1452 45.3333L76.6945 43.8826L77.9671 33.6992C78.0269 33.7007 78.0838 33.7097 78.1452 33.7097C78.2065 33.7097 78.2634 33.7007 78.3232 33.6992L79.5959 43.8826ZM72.0161 15.3226C72.0161 11.9423 74.7649 9.19355 78.1452 9.19355C81.5254 9.19355 84.2742 11.9423 84.2742 15.3226V18.3871C84.2742 21.7673 81.5254 24.5161 78.1452 24.5161C74.7649 24.5161 72.0161 21.7673 72.0161 18.3871V15.3226ZM78.1452 27.5806C79.221 27.5806 80.249 27.3846 81.2097 27.0442V28.6917C80.8296 29.2782 79.7739 30.6452 78.1452 30.6452C76.5134 30.6452 75.4562 29.2723 75.0806 28.6917V27.0442C76.0413 27.3846 77.0693 27.5806 78.1452 27.5806ZM72.7927 30.7679C73.2573 31.3941 73.9868 32.2036 74.9886 32.8134L73.4668 44.9884L78.1452 49.6667L82.8235 44.9884L81.3017 32.8134C82.305 32.2021 83.0345 31.3941 83.4976 30.7679L89.3049 31.5968C90.805 31.8116 91.9355 33.1164 91.9355 34.6307V58.2258C91.9355 59.0697 91.2472 59.7581 90.4032 59.7581C89.5593 59.7581 88.871 59.0697 88.871 58.2258V36.7742H85.8064V52.0968H70.4839V36.7742H61.2305C60.7629 36.7742 60.3267 36.564 60.0341 36.1996L49.3891 22.8933C49.1594 22.6053 49.0323 22.2439 49.0323 21.8743V21.5481C49.0323 20.6503 49.7632 19.9194 50.661 19.9194C51.1316 19.9194 51.579 20.1214 51.888 20.4752L62.2158 32.2784L72.7927 30.7679ZM26.0484 67.4194V91.9355H14.4981L24.0321 67.4194H26.0484ZM29.1129 67.4194H32.1774V91.9355H29.1129V67.4194ZM35.2419 67.4194H37.2583L46.7922 91.9355H35.2419V67.4194ZM40.5465 67.4194H43.3873L52.9213 91.9355H50.0804L40.5465 67.4194ZM45.9677 65.5991V61.2903H61.2903V52.0968H58.2258V38.697C59.0563 39.4205 60.1075 39.8387 61.2305 39.8387H67.4194V91.9355H56.2095L45.9677 65.5991ZM70.4839 55.1613H76.6129V91.9355H70.4839V55.1613ZM3.06452 9.19355H17.4893L23.6183 3.06452H37.672L43.801 9.19355H58.2258V12.2581H3.06452V9.19355ZM6.12903 15.3226H55.1613V19.5625L54.1946 18.4574C53.3028 17.4384 52.0152 16.8548 50.661 16.8548C48.0746 16.8548 45.9677 18.9617 45.9677 21.5481V21.8743C45.9677 22.9345 46.3321 23.9767 46.9957 24.8072L55.1613 35.0137V52.0968H6.12903V15.3226ZM3.06452 55.1613H58.2258V58.2258H3.06452V55.1613ZM42.9032 61.2903V64.3548H18.3871V61.2903H42.9032ZM17.903 67.4194H20.7438L11.2099 91.9355H8.36906L17.903 67.4194ZM79.6774 91.9355V55.1613H85.8064V91.9355H79.6774Z" fill="#197081"/>
<path d="M42.9033 30.6453C37.8329 30.6453 33.7097 34.7684 33.7097 39.8388C33.7097 44.9092 37.8329 49.0323 42.9033 49.0323C47.9736 49.0323 52.0968 44.9092 52.0968 39.8388C52.0968 34.7684 47.9736 30.6453 42.9033 30.6453ZM41.371 33.9275V38.3065H36.992C37.5493 36.163 39.2275 34.4849 41.371 33.9275ZM36.992 41.3711H41.371V45.7501C39.2275 45.1927 37.5493 43.5146 36.992 41.3711ZM44.4355 45.7501V33.9275C47.0713 34.6121 49.0323 36.992 49.0323 39.8388C49.0323 42.6856 47.0713 45.0655 44.4355 45.7501Z" fill="#9ED000"/>
</g>
<defs>
<clipPath id="clip0">
<rect width="95" height="95" fill="white"/>
</clipPath>
</defs>
</svg>
