<svg width="18" height="16" viewBox="0 0 18 16" fill="none" xmlns="http://www.w3.org/2000/svg">
<path d="M16.1505 4.33475C16.8825 3.815 17.4982 3.16625 18 2.41925V2.4185C17.3302 2.71175 16.6178 2.90675 15.8738 3.00125C16.6388 2.5445 17.223 1.82675 17.4975 0.962C16.7843 1.38725 15.9967 1.68725 15.1575 1.85525C14.4802 1.13375 13.515 0.6875 12.462 0.6875C10.419 0.6875 8.77425 2.34575 8.77425 4.37825C8.77425 4.67075 8.799 4.952 8.85975 5.21975C5.79225 5.06975 3.07725 3.59975 1.25325 1.3595C0.93525 1.91225 0.74775 2.5445 0.74775 3.22475C0.74775 4.50275 1.4055 5.63525 2.38725 6.2915C1.794 6.28025 1.21275 6.10775 0.72 5.837V5.8775C0.72 7.67075 1.99875 9.16025 3.6765 9.50375C3.37575 9.58625 3.04875 9.62525 2.709 9.62525C2.47275 9.62525 2.23425 9.61175 2.01075 9.56225C2.4885 11.0233 3.846 12.098 5.4585 12.1332C4.203 13.115 2.6085 13.7067 0.88275 13.7067C0.5805 13.7067 0.29025 13.6932 0 13.6565C1.635 14.7102 3.5715 15.3125 5.661 15.3125C12.1732 15.3125 16.4175 9.8795 16.1505 4.33475Z" fill="white"/>
</svg>
