<?xml version="1.0" encoding="UTF-8" standalone="no"?>
<svg
   xmlns:dc="http://purl.org/dc/elements/1.1/"
   xmlns:cc="http://creativecommons.org/ns#"
   xmlns:rdf="http://www.w3.org/1999/02/22-rdf-syntax-ns#"
   xmlns:svg="http://www.w3.org/2000/svg"
   xmlns="http://www.w3.org/2000/svg"
   xmlns:sodipodi="http://sodipodi.sourceforge.net/DTD/sodipodi-0.dtd"
   xmlns:inkscape="http://www.inkscape.org/namespaces/inkscape"
   version="1.1"
   id="svg2"
   xml:space="preserve"
   width="258.66666"
   height="258.66666"
   viewBox="0 0 258.66666 258.66666"
   sodipodi:docname="UOL_-_Universo_On-Line.eps"><metadata
     id="metadata8"><rdf:RDF><cc:Work
         rdf:about=""><dc:format>image/svg+xml</dc:format><dc:type
           rdf:resource="http://purl.org/dc/dcmitype/StillImage" /></cc:Work></rdf:RDF></metadata><defs
     id="defs6" /><sodipodi:namedview
     pagecolor="#ffffff"
     bordercolor="#666666"
     borderopacity="1"
     objecttolerance="10"
     gridtolerance="10"
     guidetolerance="10"
     inkscape:pageopacity="0"
     inkscape:pageshadow="2"
     inkscape:window-width="640"
     inkscape:window-height="480"
     id="namedview4" /><g
     id="g10"
     inkscape:groupmode="layer"
     inkscape:label="ink_ext_XXXXXX"
     transform="matrix(1.3333333,0,0,-1.3333333,0,258.66667)"><g
       id="g12"
       transform="scale(0.1)"><path
         d="M 2.59766,1933.23 H 1930.16 V 5.66797 H 2.59766 V 1933.23"
         style="fill:#ffffff;fill-opacity:1;fill-rule:evenodd;stroke:none"
         id="path14" /><path
         d="M 120.516,1161.98 C 98.6484,1136.2 81.9844,1106.62 69.75,1074.5 56.9922,1041.01 50.2188,1006.56 50.2188,969.84 c 0,-41.402 8.9062,-79.856 24.2148,-116.375 15.1484,-36.125 35.9294,-67.172 63.2654,-94.504 26.555,-26.555 57.797,-47.645 93.723,-63.266 35.926,-15.617 74.973,-24.211 115.594,-24.211 41.402,0 79.789,8.305 116.375,24.211 35.273,15.332 66.777,36.317 93.722,63.266 26.95,26.949 47.453,58.66 62.485,94.504 15.425,36.793 24.211,74.973 24.211,116.375 0,36.72 -6.77,71.17 -19.524,104.66 -12.234,32.12 -28.707,61.08 -50.769,87.48 -21.672,25.93 -46.985,47.43 -75.762,64.04 -45.047,26.02 -91.387,41.39 -145.27,41.39 -2.601,0 -5.207,0 -7.812,0 -53.106,0 -101.719,-15.23 -147.613,-41.39 -28.871,-16.45 -54.68,-38.27 -76.543,-64.04"
         style="fill:#231f20;fill-opacity:1;fill-rule:evenodd;stroke:none"
         id="path16" /><path
         d="m 1349.09,1158.85 c -28.9,0 -55.46,-4.69 -80.45,-14.84 -25,-10.15 -46.86,-24.21 -65.61,-42.96 -18.74,-18.74 -33.58,-39.83 -42.96,-64.04 -10.14,-24.21 -14.84,-50.768 -14.84,-79.666 0,-27.332 4.7,-53.891 14.84,-78.102 9.38,-23.433 24.22,-45.301 42.96,-64.047 19.53,-17.965 41.4,-32.804 66.39,-42.957 24.21,-9.371 51.55,-14.84 79.67,-14.84 28.89,0 54.67,5.469 80.45,14.84 24.21,10.153 46.85,24.992 65.6,42.957 19.53,18.746 33.59,40.614 43.74,64.828 10.15,24.211 14.84,49.989 14.84,77.321 0,28.898 -4.69,55.456 -14.84,79.666 -9.37,24.21 -23.43,45.3 -42.95,64.04 -18.75,18.75 -41.4,32.81 -66.39,42.96 -25,10.15 -51.56,14.84 -80.45,14.84 z m 0,-128.09 c 19.52,0 35.14,-6.25 46.86,-20.31 11.71,-13.274 17.96,-30.458 17.96,-53.106 0,-21.09 -6.25,-39.047 -17.96,-51.551 -11.72,-13.277 -27.34,-19.523 -46.86,-19.523 -19.53,0 -34.37,6.246 -46.09,19.523 -12.49,12.504 -17.96,30.461 -17.96,51.551 0,22.648 5.47,39.832 17.96,53.106 11.72,14.06 26.56,20.31 46.09,20.31"
         style="fill:#231f20;fill-opacity:1;fill-rule:evenodd;stroke:none"
         id="path18" /><path
         d="m 1081.97,875.336 c 3.13,17.965 4.69,40.613 4.69,67.945 V 1150.26 H 949.199 V 941.723 c 0,-23.426 -2.347,-39.836 -8.594,-49.985 -6.246,-9.375 -15.621,-14.062 -29.679,-14.062 -14.059,0 -23.43,4.687 -29.68,14.062 -5.469,8.59 -8.59,25.77 -8.59,49.985 V 1150.26 H 735.973 V 943.281 c -0.782,-28.89 1.562,-50.765 4.683,-67.945 3.125,-17.965 9.375,-32.023 16.407,-43.742 15.621,-24.211 36.707,-42.172 63.261,-54.668 25.778,-13.278 56.235,-19.528 90.602,-19.528 34.367,0 64.043,6.25 90.594,19.528 26.56,12.496 47.65,30.457 62.49,54.668 7.81,11.719 14.06,26.558 17.96,43.742"
         style="fill:#231f20;fill-opacity:1;fill-rule:evenodd;stroke:none"
         id="path20" /><path
         d="M 1748.98,1150.26 H 1611.52 V 767.555 h 271.02 v 124.183 h -133.56 v 258.522"
         style="fill:#231f20;fill-opacity:1;fill-rule:evenodd;stroke:none"
         id="path22" /><path
         d="m 545.398,1159.63 c -36.707,44.52 -84.351,73.42 -142.929,84.35 -57.797,10.94 -112.469,2.34 -164.016,-25.77 -26.558,-14.84 -49.207,-33.58 -67.172,-55.46 -18.746,-22.64 -32.804,-48.42 -42.176,-77.32 -9.371,-29.68 -11.718,-60.92 -8.589,-91.379 7.808,19.519 19.523,37.489 33.582,54.679 20.308,24.21 45.3,42.17 73.418,55.45 28.117,12.49 58.578,19.52 90.601,20.3 32.024,0 63.266,-6.24 92.164,-18.74 30.457,-12.5 57.016,-31.24 79.664,-56.23 8.59,-8.59 15.625,-18.75 22.653,-28.9 10.152,0 20.304,-0.78 28.898,-3.13 22.649,-6.25 40.613,-17.96 54.672,-35.144 l 0.781,10.934 c 2.344,30.46 -0.781,59.36 -9.371,87.48 -8.594,28.12 -22.652,54.67 -42.18,78.88"
         style="fill:#f8a112;fill-opacity:1;fill-rule:evenodd;stroke:none"
         id="path24" /><path
         d="m 114.266,878.457 c 3.906,-23.43 10.933,-46.082 22.652,-66.387 10.934,-20.304 25.773,-39.05 44.52,-55.453 l 9.371,-7.808 c 32.023,-21.871 66.386,-37.493 103.879,-45.301 24.21,-4.688 48.421,-3.125 71.855,2.34 24.992,5.468 48.426,15.621 70.289,30.465 -20.305,4.683 -38.269,15.617 -52.328,32.019 l -5.469,6.25 c -29.676,-3.121 -59.355,-2.344 -89.035,3.906 -37.488,8.59 -70.293,24.211 -100.754,46.078 -28.898,21.872 -53.109,49.989 -71.074,82.793 l -4.688,9.371 c -0.781,-12.496 -0.781,-25.773 0.782,-38.273"
         style="fill:#f8a112;fill-opacity:1;fill-rule:evenodd;stroke:none"
         id="path26" /><path
         d="m 392.316,1075.28 c -27.336,11.72 -57.015,17.18 -87.476,17.18 -29.68,-0.78 -57.797,-7.03 -83.57,-19.52 -25.774,-11.72 -48.422,-28.9 -67.172,-50.77 -13.274,-16.4 -24.211,-34.365 -31.239,-53.107 5.465,-23.434 14.059,-45.301 26.555,-67.176 17.961,-30.453 41.395,-56.231 70.293,-76.535 28.117,-20.309 60.141,-33.586 94.508,-41.395 21.086,-3.906 42.957,-5.469 64.82,-4.691 -8.59,14.058 -14.055,28.902 -16.398,46.086 -3.129,17.179 -2.344,34.363 0.777,53.105 3.906,22.652 12.5,43.742 24.219,63.266 12.492,19.527 28.894,37.492 48.422,51.547 12.496,9.37 25.773,16.4 39.05,21.87 l -7.027,7.81 c -21.867,22.65 -46.863,40.62 -75.762,52.33"
         style="fill:#d93432;fill-opacity:1;fill-rule:evenodd;stroke:none"
         id="path28" /><path
         d="m 600.852,941.723 -7.028,11.715 c -10.152,-35.141 -28.898,-66.387 -53.109,-94.504 -5.469,-23.434 -14.84,-44.52 -27.34,-64.043 -12.492,-19.528 -28.895,-36.715 -47.641,-51.551 13.274,-0.781 26.555,1.566 39.836,6.25 12.496,4.683 24.211,11.715 35.926,21.086 15.617,14.84 30.461,32.023 42.957,49.984 l 2.34,3.129 c 5.469,11.711 10.937,23.426 14.844,34.363 3.902,11.715 6.246,23.43 7.027,34.364 0.777,11.718 0.777,21.875 -1.559,32.023 -1.566,6.25 -3.906,11.715 -6.253,17.184"
         style="fill:#f37d24;fill-opacity:1;fill-rule:evenodd;stroke:none"
         id="path30" /><path
         d="m 86.9336,1079.19 c -10.1563,-28.12 -15.625,-57.8 -17.1836,-89.827 -0.7852,-41.39 7.0273,-81.222 22.6484,-118.715 7.8086,-17.964 17.1836,-35.148 28.8946,-51.55 10.937,-15.621 23.434,-30.457 37.492,-43.735 -30.461,33.582 -48.422,72.637 -53.89,116.375 -1.563,14.84 -1.563,28.895 -0.782,43.739 -10.1521,28.117 -15.6208,56.234 -15.6208,85.133 0,27.34 4.6836,53.89 13.2778,81.23 7.027,18.74 16.402,36.7 26.554,53.11 -17.961,-23.43 -31.242,-48.43 -41.3904,-75.76"
         style="fill:#e4562c;fill-opacity:1;fill-rule:evenodd;stroke:none"
         id="path32" /><path
         d="m 620.379,1062.78 c -7.031,22.65 -16.399,44.52 -28.117,64.83 -11.715,19.53 -25.774,37.49 -42.957,53.89 -15.617,16.4 -33.586,30.46 -53.891,42.18 17.184,-11.72 32.801,-25.78 46.859,-41.4 21.872,-24.99 38.274,-51.55 48.426,-81.23 10.153,-30.46 14.84,-61.7 12.5,-94.5 -0.785,-10.155 -2.347,-19.527 -3.906,-29.683 3.906,-6.246 7.812,-14.058 10.934,-21.867 7.808,-22.648 9.371,-46.859 5.464,-71.07 11.719,33.578 17.969,68.73 17.184,105.433 -1.559,24.997 -5.465,49.987 -12.496,73.417"
         style="fill:#e4562c;fill-opacity:1;fill-rule:evenodd;stroke:none"
         id="path34" /><path
         d="m 528.215,988.586 c 7.812,-16.402 12.5,-34.363 14.844,-52.332 2.339,-17.957 3.121,-35.145 1.562,-52.324 l -3.125,-17.188 c 23.43,27.336 39.051,57.797 48.426,92.946 -5.469,5.468 -10.938,10.933 -17.184,15.621 -12.5,8.589 -27.34,13.277 -44.523,13.277"
         style="fill:#e4562c;fill-opacity:1;fill-rule:evenodd;stroke:none"
         id="path36" /><path
         d="m 481.355,782.391 c 9.368,13.281 17.18,28.117 22.649,42.961 -31.238,-22.653 -65.606,-38.274 -103.094,-46.086 5.465,-8.59 12.492,-15.618 20.305,-21.09 7.812,-5.465 16.402,-9.367 26.555,-12.492 12.5,10.933 24.21,23.429 33.585,36.707"
         style="fill:#d93432;fill-opacity:1;fill-rule:evenodd;stroke:none"
         id="path38" /><path
         d="m 324.363,698.82 33.59,-1.562 c 28.895,0.781 56.235,6.25 82.785,14.84 24.996,8.59 49.207,20.308 70.297,35.144 -13.281,-6.246 -27.336,-10.929 -42.176,-11.715 -4.683,-0.777 -10.156,-0.777 -15.621,-0.777 -38.269,-24.996 -81.23,-36.711 -128.875,-35.93"
         style="fill:#d93432;fill-opacity:1;fill-rule:evenodd;stroke:none"
         id="path40" /><path
         d="m 510.254,925.324 c -4.684,20.305 -11.719,39.051 -21.867,57.012 -17.969,-5.469 -33.59,-14.84 -48.43,-27.336 -15.621,-13.277 -28.894,-29.676 -39.047,-48.422 -8.594,-18.746 -14.062,-36.711 -15.625,-55.457 -2.34,-17.961 0,-34.363 4.688,-49.984 2.343,-5.465 3.906,-10.153 7.031,-14.844 19.523,2.348 37.488,7.812 55.449,15.621 18.75,7.031 35.934,17.184 52.332,29.68 l 1.563,0.781 c 3.125,11.719 5.465,23.434 7.027,35.152 1.566,19.524 0.785,38.266 -3.121,57.797"
         style="fill:#fee702;fill-opacity:1;fill-rule:evenodd;stroke:none"
         id="path42" /></g></g></svg>
