<?xml version="1.0" standalone="no"?>
<!DOCTYPE svg PUBLIC "-//W3C//DTD SVG 20010904//EN"
 "http://www.w3.org/TR/2001/REC-SVG-20010904/DTD/svg10.dtd">
<svg version="1.0" xmlns="http://www.w3.org/2000/svg"
 width="770.000000pt" height="300.000000pt" viewBox="0 0 770.000000 300.000000"
 preserveAspectRatio="xMidYMid meet">

<g transform="translate(0.000000,300.000000) scale(0.100000,-0.100000)"
fill="#000000" stroke="none">
<path d="M600 2015 c0 -27 4 -35 19 -35 10 0 32 -5 49 -11 36 -12 15 36 227
-530 90 -240 169 -448 176 -463 13 -29 40 -39 85 -34 28 3 32 10 152 338 67
184 148 404 179 489 62 169 89 211 134 211 26 0 29 3 29 35 l0 35 -165 0 -165
0 0 -35 c0 -33 2 -35 36 -35 48 0 74 -16 74 -45 0 -46 -229 -701 -240 -688 -7
8 -175 467 -225 617 -14 43 -24 84 -21 92 3 7 28 16 56 20 49 6 50 7 50 40 l0
34 -225 0 -225 0 0 -35z"/>
<path d="M4200 2016 c0 -33 1 -34 50 -40 34 -5 53 -13 60 -26 11 -20 12 -714
1 -834 -7 -75 -11 -81 -73 -91 -34 -5 -38 -9 -38 -35 l0 -30 165 0 165 0 0 29
c0 28 -3 30 -45 37 -76 11 -75 6 -75 267 0 128 -3 297 -6 377 -5 102 -3 142 4
135 6 -5 90 -197 186 -425 97 -228 183 -421 191 -430 12 -11 20 -12 33 -4 9 6
54 101 99 210 138 332 265 628 274 638 5 6 9 -153 9 -360 0 -280 -3 -374 -12
-387 -8 -11 -29 -18 -55 -20 -41 -2 -43 -3 -43 -34 l0 -33 215 0 215 0 0 29
c0 31 -4 33 -67 46 -18 4 -35 10 -38 14 -2 5 -5 207 -6 450 -1 330 2 445 11
456 6 8 32 17 56 21 42 6 44 8 44 40 l0 34 -153 0 c-134 0 -156 -2 -169 -17
-8 -10 -84 -183 -169 -385 -85 -203 -156 -368 -159 -368 -3 0 -77 171 -164
380 -88 208 -166 382 -173 385 -8 3 -86 5 -174 5 l-159 0 0 -34z"/>
<path d="M3795 1777 c-7 -18 -56 -149 -108 -292 -133 -364 -125 -345 -158
-352 -22 -4 -29 -11 -29 -29 0 -24 1 -24 105 -24 95 0 105 2 105 18 0 11 -13
24 -32 33 -36 15 -37 26 -17 101 16 63 28 68 143 68 77 0 107 -4 115 -14 16
-19 51 -145 43 -149 -4 -3 -19 -7 -34 -11 -19 -4 -28 -13 -28 -26 0 -19 7 -20
145 -20 132 0 145 2 145 18 0 9 -15 24 -33 32 -30 14 -38 30 -152 335 -66 176
-124 326 -128 333 -5 6 -22 12 -38 12 -24 0 -33 -6 -44 -33z m50 -279 c22 -62
41 -119 43 -125 3 -10 -20 -13 -88 -13 -68 0 -91 3 -88 13 9 37 84 237 88 237
3 0 23 -51 45 -112z"/>
<path d="M5811 1792 c-5 -10 -52 -135 -104 -278 -147 -403 -135 -374 -168
-381 -22 -4 -29 -11 -29 -29 0 -24 1 -24 105 -24 98 0 105 1 105 20 0 13 -9
22 -25 26 -43 11 -48 27 -29 91 10 32 22 64 27 71 14 18 221 17 236 -2 7 -8
20 -44 31 -81 l19 -66 -25 -9 c-14 -6 -30 -10 -35 -10 -5 0 -9 -9 -9 -20 0
-19 7 -20 145 -20 138 0 145 1 145 20 0 11 -6 20 -14 20 -38 0 -60 44 -179
360 l-122 325 -32 3 c-23 2 -34 -2 -42 -16z m48 -308 c23 -61 41 -114 41 -118
0 -3 -40 -6 -90 -6 -49 0 -90 3 -90 8 0 20 86 240 92 234 3 -4 25 -57 47 -118z"/>
<path d="M6780 1798 c-89 -25 -150 -115 -150 -221 0 -102 48 -156 166 -183 38
-9 86 -20 107 -26 90 -22 103 -153 21 -217 -20 -15 -41 -21 -81 -21 -99 0
-154 39 -163 118 -3 33 -10 48 -22 50 -13 3 -18 -8 -23 -50 -4 -29 -5 -71 -3
-93 3 -35 8 -42 43 -60 57 -28 200 -33 262 -10 127 49 196 197 149 320 -24 61
-57 82 -181 109 -132 29 -155 47 -155 120 1 79 40 116 124 116 79 0 126 -30
126 -80 0 -41 10 -60 30 -60 14 0 18 13 24 76 4 48 2 82 -4 89 -26 31 -192 45
-270 23z"/>
<path d="M1550 1775 c0 -18 5 -25 19 -25 53 0 51 10 51 -309 l0 -298 -25 -23
c-14 -13 -25 -27 -25 -32 0 -4 105 -8 234 -8 l233 0 7 86 c4 47 5 88 2 91 -13
14 -36 -10 -42 -44 -11 -61 -15 -63 -135 -63 l-109 0 0 140 0 140 66 0 c81 0
100 -10 108 -55 5 -26 12 -35 26 -35 19 0 20 8 20 110 0 102 -1 110 -19 110
-13 0 -21 -9 -26 -30 -9 -41 -34 -52 -108 -48 l-62 3 -3 123 -3 122 110 0
c119 0 121 -1 121 -61 0 -22 5 -29 19 -29 15 0 19 10 25 53 3 28 6 64 6 80 l0
27 -245 0 -245 0 0 -25z"/>
<path d="M2110 1780 c0 -13 9 -22 28 -26 53 -13 52 -6 52 -314 0 -308 1 -301
-52 -314 -19 -4 -28 -13 -28 -26 0 -19 7 -20 111 -20 109 0 110 0 107 22 -2
17 -12 24 -33 28 -29 5 -30 8 -36 65 -10 91 -10 427 0 421 4 -3 88 -112 186
-243 98 -131 190 -250 203 -265 25 -27 86 -47 100 -33 4 3 9 154 12 333 l5
327 33 14 c19 9 32 22 32 33 0 16 -10 18 -110 18 -103 0 -110 -1 -110 -20 0
-13 9 -22 28 -26 15 -3 33 -7 40 -10 9 -2 12 -58 12 -231 l0 -228 -191 258
-191 257 -99 0 c-92 0 -99 -1 -99 -20z"/>
<path d="M2870 1792 c0 -18 26 -41 50 -44 l25 -3 3 -301 2 -300 -25 -24 c-14
-13 -25 -28 -25 -33 0 -5 87 -7 208 -5 l207 3 67 33 c80 39 119 82 167 181 34
72 36 82 36 176 -1 122 -26 196 -87 256 -64 62 -103 69 -385 69 -134 0 -243
-4 -243 -8z m445 -71 c23 -10 53 -33 68 -50 88 -105 75 -373 -23 -471 -45 -45
-90 -60 -182 -60 -56 0 -69 3 -78 19 -11 21 -15 537 -4 565 9 24 165 22 219
-3z"/>
<path d="M6262 1778 c2 -17 11 -24 33 -26 16 -2 33 -9 37 -15 4 -7 8 -144 8
-305 0 -225 -3 -294 -12 -296 -7 -3 -25 -7 -40 -10 -19 -4 -28 -13 -28 -26 0
-19 7 -20 151 -20 150 0 150 0 147 23 -2 15 -11 23 -28 25 -50 7 -50 5 -50
318 0 280 1 294 19 304 11 5 29 10 40 10 14 0 21 6 21 20 0 19 -7 20 -151 20
-150 0 -150 0 -147 -22z"/>
</g>
</svg>
