<svg width="88" height="88" viewBox="0 0 88 88" fill="none" xmlns="http://www.w3.org/2000/svg">
<path d="M53.625 71.5V53.625H55C58.0333 53.625 60.5 51.1582 60.5 48.125V37.125C60.5 30.0726 56.045 24.057 49.8066 21.7002C52.9182 19.7546 55 16.3075 55 12.375C55 6.30988 50.0651 1.375 44 1.375C37.9349 1.375 33 6.30988 33 12.375C33 16.3075 35.0818 19.7546 38.1934 21.7002C31.955 24.057 27.5 30.0726 27.5 37.125V48.125C27.5 51.1582 29.9667 53.625 33 53.625H34.375V71.5C34.375 74.5332 36.8418 77 39.875 77C41.5264 77 42.9908 76.2548 44 75.0997C45.0093 76.2548 46.4736 77 48.125 77C51.1583 77 53.625 74.5332 53.625 71.5ZM45.3461 35.376L44 37.3959L42.6539 35.3746L43.4472 23.4025C43.6315 23.3956 43.813 23.375 44 23.375C44.187 23.375 44.3685 23.3956 44.5541 23.4025L45.3461 35.376ZM35.75 12.375C35.75 7.82512 39.4501 4.125 44 4.125C48.5499 4.125 52.25 7.82512 52.25 12.375C52.25 16.9249 48.5499 20.625 44 20.625C39.4501 20.625 35.75 16.9249 35.75 12.375ZM50.875 71.5C50.875 73.0166 49.6416 74.25 48.125 74.25C46.6084 74.25 45.375 73.0166 45.375 71.5V46.75H42.625V71.5C42.625 73.0166 41.3916 74.25 39.875 74.25C38.3584 74.25 37.125 73.0166 37.125 71.5V31.625H34.375V50.875H33C31.4834 50.875 30.25 49.6416 30.25 48.125V37.125C30.25 30.6955 34.6912 25.2986 40.6629 23.8012L39.8461 36.124L44 42.3541L48.1539 36.1254L47.3371 23.8026C53.3087 25.2986 57.75 30.6955 57.75 37.125V48.125C57.75 49.6416 56.5166 50.875 55 50.875H53.625V31.625H50.875V71.5Z" fill="#9ED000"/>
<path d="M78.3049 57.0708C80.0291 55.5583 81.125 53.3445 81.125 50.875C81.125 46.3251 77.4249 42.625 72.875 42.625C68.3251 42.625 64.625 46.3251 64.625 50.875C64.625 53.3431 65.7195 55.5555 67.4437 57.0694C66.0784 57.5438 64.801 58.2574 63.6666 59.1855C59.5678 59.6626 56.375 63.151 56.375 67.375C56.375 69.8445 57.4709 72.0583 59.1951 73.5708C54.3606 75.2551 50.875 79.8476 50.875 85.25V86.625H78.375V85.25C78.375 79.8476 74.8894 75.2551 70.0549 73.5708C71.1054 72.6495 71.9166 71.467 72.3938 70.125H86.625V68.75C86.625 63.3476 83.1394 58.7551 78.3049 57.0708ZM72.875 45.375C75.9083 45.375 78.375 47.8417 78.375 50.875C78.375 53.9082 75.9083 56.375 72.875 56.375C69.8417 56.375 67.375 53.9082 67.375 50.875C67.375 47.8417 69.8417 45.375 72.875 45.375ZM66 75.625C70.8414 75.625 74.8578 79.2165 75.5274 83.875H53.7226C54.3909 79.2165 58.4086 75.625 63.25 75.625H66ZM64.625 72.875C61.5918 72.875 59.125 70.4083 59.125 67.375C59.125 64.3417 61.5918 61.875 64.625 61.875C67.6583 61.875 70.125 64.3417 70.125 67.375C70.125 70.4083 67.6583 72.875 64.625 72.875ZM72.875 67.375C72.875 63.9994 70.8359 61.0954 67.9264 59.8194C69.0539 59.3684 70.2639 59.125 71.5 59.125H74.25C79.0914 59.125 83.1077 62.7165 83.7774 67.375H72.875Z" fill="#197081"/>
<path d="M28.8049 73.5708C30.5291 72.0583 31.625 69.8445 31.625 67.375C31.625 63.1496 28.4323 59.6626 24.3334 59.1855C23.2004 58.256 21.923 57.5424 20.5562 57.0694C22.2805 55.5555 23.375 53.3431 23.375 50.875C23.375 46.3251 19.6749 42.625 15.125 42.625C10.5751 42.625 6.875 46.3251 6.875 50.875C6.875 53.3445 7.97088 55.5583 9.69513 57.0708C4.86063 58.7551 1.375 63.3476 1.375 68.75V70.125H15.6063C16.0834 71.467 16.8946 72.6495 17.9451 73.5708C13.1106 75.2551 9.625 79.8476 9.625 85.25V86.625H37.125V85.25C37.125 79.8476 33.6394 75.2551 28.8049 73.5708ZM15.125 45.375C18.1583 45.375 20.625 47.8417 20.625 50.875C20.625 53.9082 18.1583 56.375 15.125 56.375C12.0918 56.375 9.625 53.9082 9.625 50.875C9.625 47.8417 12.0918 45.375 15.125 45.375ZM15.125 67.375H4.22263C4.89088 62.7165 8.90863 59.125 13.75 59.125H16.5C17.7375 59.125 18.9475 59.3684 20.075 59.8194C17.1641 61.0954 15.125 63.9994 15.125 67.375ZM23.375 61.875C26.4083 61.875 28.875 64.3417 28.875 67.375C28.875 70.4083 26.4083 72.875 23.375 72.875C20.3417 72.875 17.875 70.4083 17.875 67.375C17.875 64.3417 20.3417 61.875 23.375 61.875ZM12.4726 83.875C13.1409 79.2165 17.1586 75.625 22 75.625H24.75C29.5914 75.625 33.6077 79.2165 34.2774 83.875H12.4726Z" fill="#197081"/>
<path d="M82.5 8.25C82.5 4.45913 79.4159 1.375 75.625 1.375H64.625C60.8341 1.375 57.75 4.45913 57.75 8.25V15.125H75.625C79.4159 15.125 82.5 12.0409 82.5 8.25ZM60.5 8.25C60.5 5.97575 62.3507 4.125 64.625 4.125H75.625C77.8993 4.125 79.75 5.97575 79.75 8.25C79.75 10.5243 77.8993 12.375 75.625 12.375H60.5V8.25Z" fill="#197081"/>
<path d="M63.25 6.875H66V9.625H63.25V6.875Z" fill="#197081"/>
<path d="M68.75 6.875H71.5V9.625H68.75V6.875Z" fill="#197081"/>
<path d="M74.25 6.875H77V9.625H74.25V6.875Z" fill="#197081"/>
<path d="M12.375 15.125H30.25V8.25C30.25 4.45913 27.1659 1.375 23.375 1.375H12.375C8.58413 1.375 5.5 4.45913 5.5 8.25C5.5 12.0409 8.58413 15.125 12.375 15.125ZM12.375 4.125H23.375C25.6493 4.125 27.5 5.97575 27.5 8.25V12.375H12.375C10.1007 12.375 8.25 10.5243 8.25 8.25C8.25 5.97575 10.1007 4.125 12.375 4.125Z" fill="#197081"/>
<path d="M22 6.875H24.75V9.625H22V6.875Z" fill="#197081"/>
<path d="M16.5 6.875H19.25V9.625H16.5V6.875Z" fill="#197081"/>
<path d="M11 6.875H13.75V9.625H11V6.875Z" fill="#197081"/>
<path d="M68.75 17.875C64.9591 17.875 61.875 20.9591 61.875 24.75V31.625H79.75C83.5409 31.625 86.625 28.5409 86.625 24.75C86.625 20.9591 83.5409 17.875 79.75 17.875H68.75ZM83.875 24.75C83.875 27.0243 82.0243 28.875 79.75 28.875H64.625V24.75C64.625 22.4757 66.4757 20.625 68.75 20.625H79.75C82.0243 20.625 83.875 22.4757 83.875 24.75Z" fill="#197081"/>
<path d="M67.375 23.375H70.125V26.125H67.375V23.375Z" fill="#197081"/>
<path d="M72.875 23.375H75.625V26.125H72.875V23.375Z" fill="#197081"/>
<path d="M78.375 23.375H81.125V26.125H78.375V23.375Z" fill="#197081"/>
<path d="M8.25 31.625H26.125V24.75C26.125 20.9591 23.0409 17.875 19.25 17.875H8.25C4.45913 17.875 1.375 20.9591 1.375 24.75C1.375 28.5409 4.45913 31.625 8.25 31.625ZM8.25 20.625H19.25C21.5243 20.625 23.375 22.4757 23.375 24.75V28.875H8.25C5.97575 28.875 4.125 27.0243 4.125 24.75C4.125 22.4757 5.97575 20.625 8.25 20.625Z" fill="#197081"/>
<path d="M17.875 23.375H20.625V26.125H17.875V23.375Z" fill="#197081"/>
<path d="M12.375 23.375H15.125V26.125H12.375V23.375Z" fill="#197081"/>
<path d="M6.875 23.375H9.625V26.125H6.875V23.375Z" fill="#197081"/>
</svg>
